<svg id="Capa_1" enable-background="new 0 0 512 512" height="512" viewBox="0 0 512 512" width="512" xmlns="http://www.w3.org/2000/svg"><g><g><path d="m363.614 452.455c-4.204 0-7.612-3.407-7.612-7.611v-296.87c0-4.204 3.408-7.611 7.612-7.611s7.611 3.407 7.611 7.611v296.869c.001 4.205-3.407 7.612-7.611 7.612z" fill="#cbc4cc"/></g><g><path d="m388.622 504.388h-50.014v-52.878c0-3.682 2.985-6.667 6.667-6.667h36.679c3.682 0 6.667 2.985 6.667 6.667v52.878z" fill="#b5adb6"/><path d="m381.954 444.844h-8.556v20.534c0 13.137-10.65 23.787-23.787 23.787h-11.004v15.223h50.014v-52.878c.001-3.681-2.984-6.666-6.667-6.666z" fill="#a79ba7"/><g><path d="m395.192 512h-63.154c-4.204 0-7.611-3.407-7.611-7.612s3.408-7.611 7.611-7.611h63.154c4.204 0 7.612 3.407 7.612 7.611s-3.409 7.612-7.612 7.612z" fill="#554e56"/></g></g><g><g><path d="m156.498 452.455c-4.204 0-7.611-3.407-7.611-7.611v-296.87c0-4.204 3.408-7.611 7.611-7.611 4.204 0 7.611 3.407 7.611 7.611v296.869c.001 4.205-3.407 7.612-7.611 7.612z" fill="#cbc4cc"/></g><path d="m181.505 504.388h-50.014v-52.878c0-3.682 2.985-6.667 6.667-6.667h36.679c3.682 0 6.667 2.985 6.667 6.667v52.878z" fill="#b5adb6"/><path d="m174.93 444.844h-8.556v20.534c0 13.137-10.65 23.787-23.787 23.787h-11.004v15.223h50.014v-52.878c0-3.681-2.985-6.666-6.667-6.666z" fill="#a79ba7"/><g><path d="m188.075 512h-63.154c-4.204 0-7.611-3.407-7.611-7.612s3.408-7.611 7.611-7.611h63.154c4.204 0 7.611 3.407 7.611 7.611s-3.407 7.612-7.611 7.612z" fill="#554e56"/></g><path d="m92.017 147.974h128.962c13.602 0 22.124-14.701 15.363-26.504l-64.481-112.566c-6.801-11.873-23.925-11.873-30.726 0l-64.481 112.566c-6.761 11.803 1.761 26.504 15.363 26.504z" fill="#fed402"/><path d="m236.342 121.47-64.481-112.566c-5.348-9.335-17.076-11.326-25.151-5.98 15.278 28.946 30.556 57.892 45.834 86.837 9.678 18.335-3.321 40.445-24.049 40.905-31.342.695-62.683 1.389-94.025 2.084 1.194 8.22 8.159 15.223 17.547 15.223h128.962c13.603.001 22.124-14.7 15.363-26.503z" fill="#f7bc09"/><g><g><path d="m156.498 101.236c-4.204 0-7.611-3.407-7.611-7.611v-48.028c0-4.204 3.408-7.611 7.611-7.611 4.204 0 7.611 3.407 7.611 7.611v48.028c.001 4.204-3.407 7.611-7.611 7.611z" fill="#fff"/></g><g><circle cx="156.498" cy="118.147" fill="#fff" r="7.618"/></g></g></g><path d="m363.615 147.974c56.845 0 92.457-61.437 64.203-110.761-28.422-49.616-99.984-49.616-128.405 0-28.256 49.324 7.357 110.761 64.202 110.761z" fill="#fd4755"/><path d="m427.818 37.213c-10.938-19.094-28.264-30.831-47.061-35.229 6.406 5.399 12.065 12.063 16.615 20.005 28.254 49.324-7.358 110.761-64.203 110.761-5.925 0-11.615-.676-17.03-1.928 12.559 10.575 28.881 17.151 47.476 17.151 56.845.001 92.457-61.436 64.203-110.76z" fill="#fb2b3a"/><g><g><path d="m363.614 94.62c-4.204 0-7.612-3.407-7.612-7.611v-48.028c0-4.204 3.408-7.611 7.612-7.611s7.611 3.407 7.611 7.611v48.028c.001 4.204-3.407 7.611-7.611 7.611z" fill="#fff"/></g><g><circle cx="363.615" cy="111.532" fill="#fff" r="7.618"/></g></g></g></svg>