<svg id="svg" version="1.1" xmlns="http://www.w3.org/2000/svg" xmlns:xlink="http://www.w3.org/1999/xlink" width="70" height="60" viewBox="0, 0, 400,408.52575488454704"><g id="svgg"><path id="path0" d="M133.000 64.007 C 106.536 65.933,81.841 78.950,65.093 99.800 C 62.417 103.132,56.800 111.240,56.800 111.771 C 56.800 111.855,56.191 113.000,55.447 114.317 C 50.100 123.776,45.922 136.990,44.418 149.200 C 43.115 159.774,44.325 175.345,47.262 185.800 C 50.752 198.224,59.373 215.042,65.202 220.800 C 65.314 220.910,66.394 222.169,67.602 223.598 C 78.609 236.612,97.337 248.664,113.000 252.813 C 113.660 252.988,115.190 253.401,116.400 253.730 C 125.191 256.126,137.948 257.226,147.400 256.402 C 157.302 255.538,156.339 255.839,157.473 253.256 C 168.550 228.016,187.333 208.272,211.352 196.620 C 217.807 193.488,221.590 192.035,229.600 189.608 C 231.250 189.108,232.633 188.674,232.673 188.644 C 232.890 188.477,234.457 182.032,235.164 178.400 C 237.495 166.419,237.356 151.413,234.810 140.200 C 233.644 135.064,232.024 129.288,231.219 127.400 C 231.031 126.960,230.376 125.340,229.762 123.800 C 219.411 97.831,196.758 76.892,169.600 68.191 C 165.916 67.010,165.386 66.880,159.400 65.678 C 150.652 63.923,141.828 63.364,133.000 64.007 M133.691 102.900 L 133.800 110.600 137.691 110.714 L 141.583 110.829 141.691 103.114 L 141.800 95.400 150.000 95.400 L 158.200 95.400 158.308 103.500 C 158.368 107.955,158.548 111.603,158.708 111.607 C 161.262 111.668,168.300 113.923,172.107 115.900 C 187.532 123.913,188.797 148.131,174.252 157.000 C 171.704 158.554,171.072 159.200,172.100 159.200 C 176.551 159.203,184.068 167.118,185.825 173.652 C 190.484 190.978,179.259 206.725,160.800 208.758 L 158.600 209.000 158.400 217.000 L 158.200 225.000 150.000 225.000 L 141.800 225.000 141.691 217.286 L 141.583 209.571 137.691 209.686 L 133.800 209.800 133.691 217.508 L 133.583 225.217 125.491 225.108 L 117.400 225.000 117.291 217.306 L 117.183 209.612 105.691 209.506 L 94.200 209.400 94.092 201.307 L 93.983 193.215 103.492 193.107 L 113.000 193.000 113.000 160.400 L 113.000 127.800 103.600 127.600 L 94.200 127.400 94.200 119.200 L 94.200 111.000 105.700 110.894 L 117.200 110.788 117.200 102.994 L 117.200 95.200 125.391 95.200 L 133.583 95.200 133.691 102.900 M134.094 127.901 C 133.701 128.176,133.611 130.889,133.694 140.027 L 133.800 151.800 143.600 151.800 C 151.823 151.800,153.766 151.687,155.673 151.097 C 166.476 147.754,166.845 132.131,156.200 128.806 C 153.172 127.860,135.204 127.124,134.094 127.901 M133.898 167.035 C 133.364 167.569,133.539 192.179,134.080 192.720 C 135.396 194.036,155.155 193.056,158.802 191.494 C 168.382 187.392,168.636 172.459,159.202 168.033 C 156.978 166.990,134.818 166.116,133.898 167.035 " stroke="none" fill="#fbdb8b" fill-rule="evenodd"></path><path id="path1" d="M274.200 15.279 C 263.531 18.777,259.162 29.092,264.238 38.799 C 268.249 46.470,258.788 51.622,253.596 44.594 C 243.711 31.214,224.180 36.938,224.233 53.200 C 224.282 68.481,243.245 75.127,252.399 63.072 C 253.265 61.932,254.343 60.516,254.797 59.924 C 257.350 56.591,262.650 57.060,264.754 60.804 C 265.942 62.917,265.815 64.415,264.157 67.864 C 256.459 83.867,277.301 98.661,289.856 86.106 C 299.768 76.194,293.344 58.844,279.749 58.806 C 274.913 58.792,271.682 55.382,272.589 51.250 C 273.088 48.976,275.906 46.482,277.350 47.036 C 278.036 47.299,282.102 46.575,283.600 45.923 C 286.765 44.546,287.603 43.995,289.600 41.986 C 300.848 30.667,289.148 10.377,274.200 15.279 M283.720 16.419 C 299.158 22.302,295.968 44.814,279.494 46.247 C 269.709 47.099,269.281 59.191,279.035 59.202 C 297.819 59.224,299.592 87.163,280.993 90.059 C 268.634 91.983,258.984 78.734,264.700 67.688 C 266.071 65.039,266.375 62.675,265.550 61.074 C 262.919 55.965,255.794 55.918,253.373 60.994 C 247.462 73.389,227.306 69.915,224.739 56.060 C 221.637 39.312,243.509 30.675,253.118 44.853 C 256.584 49.967,263.137 49.540,265.435 44.051 C 266.240 42.129,266.162 41.572,264.657 38.522 C 261.130 31.374,262.067 25.082,267.444 19.811 C 271.955 15.390,277.816 14.169,283.720 16.419 M134.100 63.887 C 134.705 63.978,135.695 63.978,136.300 63.887 C 136.905 63.795,136.410 63.720,135.200 63.720 C 133.990 63.720,133.495 63.795,134.100 63.887 M144.505 63.887 C 145.114 63.979,146.014 63.977,146.505 63.882 C 146.997 63.787,146.500 63.711,145.400 63.714 C 144.300 63.717,143.897 63.795,144.505 63.887 M125.700 64.676 C 126.085 64.776,126.715 64.776,127.100 64.676 C 127.485 64.575,127.170 64.493,126.400 64.493 C 125.630 64.493,125.315 64.575,125.700 64.676 M314.138 71.866 C 313.004 72.027,312.685 72.417,310.986 75.722 C 302.597 92.042,287.707 102.154,269.248 104.068 L 264.296 104.581 263.276 106.191 C 231.041 157.093,272.353 224.763,332.000 218.761 C 334.750 218.484,338.203 218.291,339.674 218.333 C 341.145 218.374,342.460 218.226,342.598 218.004 C 342.735 217.782,343.467 217.600,344.224 217.600 C 344.981 217.600,345.600 217.445,345.600 217.256 C 345.600 217.066,346.486 216.806,347.569 216.678 C 348.653 216.550,349.913 216.255,350.369 216.022 C 350.826 215.790,351.558 215.420,351.995 215.200 C 352.432 214.980,353.062 214.800,353.395 214.800 C 353.728 214.800,354.000 214.620,354.000 214.400 C 354.000 214.180,354.329 214.000,354.732 214.000 C 355.135 214.000,356.350 213.551,357.432 213.002 C 358.514 212.453,359.625 212.003,359.900 212.002 C 360.175 212.001,360.400 211.838,360.400 211.640 C 360.400 211.441,361.209 210.946,362.199 210.540 C 363.188 210.133,363.998 209.665,363.999 209.500 C 363.999 209.335,364.248 209.200,364.551 209.200 C 364.854 209.200,365.342 208.911,365.635 208.558 C 365.927 208.205,366.535 207.756,366.984 207.559 C 368.308 206.980,369.307 206.270,370.448 205.100 C 371.038 204.495,371.696 204.000,371.911 204.000 C 372.760 204.000,384.000 193.007,384.000 192.177 C 384.000 191.937,384.592 191.197,385.918 189.781 C 386.423 189.241,386.710 188.800,386.556 188.800 C 386.402 188.800,386.580 188.464,386.952 188.053 C 387.807 187.108,390.400 182.820,390.400 182.352 C 390.400 182.158,390.580 182.000,390.800 182.000 C 391.020 182.000,391.200 181.730,391.200 181.400 C 391.200 181.070,391.366 180.800,391.568 180.800 C 391.771 180.800,392.055 180.260,392.200 179.600 C 392.345 178.940,392.629 178.400,392.832 178.400 C 393.034 178.400,393.200 177.950,393.200 177.400 C 393.200 176.850,393.336 176.400,393.502 176.400 C 393.896 176.400,394.711 174.543,395.041 172.897 C 395.183 172.184,395.457 171.600,395.650 171.600 C 395.843 171.600,396.000 171.060,396.000 170.400 C 396.000 169.740,396.180 169.200,396.400 169.200 C 396.620 169.200,396.800 168.750,396.800 168.200 C 396.800 167.650,396.960 167.200,397.155 167.200 C 397.350 167.200,397.601 166.705,397.714 166.100 C 397.827 165.495,398.030 164.550,398.166 164.000 C 398.302 163.450,398.525 161.920,398.661 160.600 C 398.798 159.280,399.110 157.947,399.355 157.638 C 399.973 156.858,399.979 133.687,399.361 133.285 C 399.119 133.128,398.811 131.830,398.675 130.400 C 398.442 127.937,397.920 125.856,397.146 124.305 C 396.956 123.923,396.800 123.336,396.800 123.001 C 396.800 122.666,396.454 121.628,396.030 120.696 C 395.607 119.763,395.143 118.415,394.999 117.700 C 394.854 116.985,394.571 116.400,394.368 116.400 C 394.166 116.400,394.000 116.051,394.000 115.624 C 394.000 115.197,393.820 114.736,393.600 114.600 C 393.380 114.464,393.200 114.003,393.200 113.576 C 393.200 113.149,393.060 112.800,392.888 112.800 C 392.716 112.800,392.227 111.900,391.800 110.800 C 391.373 109.700,390.884 108.800,390.712 108.800 C 390.540 108.800,390.400 108.530,390.400 108.200 C 390.400 107.870,390.220 107.600,390.000 107.600 C 389.780 107.600,389.600 107.330,389.600 107.000 C 389.600 106.670,389.420 106.400,389.200 106.400 C 388.980 106.400,388.800 106.040,388.800 105.600 C 388.800 105.160,388.632 104.800,388.427 104.800 C 388.222 104.800,387.950 104.472,387.822 104.071 C 387.695 103.669,387.264 102.990,386.863 102.560 C 386.463 102.131,385.790 101.250,385.368 100.602 C 383.920 98.383,374.475 88.409,373.801 88.387 C 373.580 88.380,372.779 87.750,372.019 86.987 C 371.260 86.224,370.405 85.600,370.119 85.600 C 369.834 85.600,369.600 85.432,369.600 85.227 C 369.600 85.022,369.195 84.726,368.700 84.570 C 368.205 84.413,367.509 83.951,367.153 83.543 C 366.797 83.134,366.302 82.800,366.053 82.800 C 365.804 82.800,365.600 82.638,365.600 82.440 C 365.600 82.241,364.791 81.746,363.801 81.340 C 362.812 80.933,362.002 80.465,362.001 80.300 C 362.001 80.135,361.640 80.000,361.200 80.000 C 360.760 80.000,360.400 79.862,360.400 79.694 C 360.400 79.373,357.480 78.000,356.797 78.000 C 356.579 78.000,356.400 77.820,356.400 77.600 C 356.400 77.380,356.128 77.200,355.795 77.200 C 355.462 77.200,354.877 77.041,354.495 76.847 C 351.930 75.542,348.595 74.400,347.350 74.400 C 346.827 74.400,346.400 74.220,346.400 74.000 C 346.400 73.780,345.860 73.600,345.200 73.600 C 344.540 73.600,344.000 73.420,344.000 73.200 C 344.000 72.980,343.226 72.800,342.280 72.800 C 341.334 72.800,340.335 72.575,340.060 72.300 C 339.564 71.804,317.206 71.430,314.138 71.866 M74.575 89.300 L 73.400 90.600 74.700 89.425 C 75.912 88.330,76.184 88.000,75.875 88.000 C 75.806 88.000,75.221 88.585,74.575 89.300 M208.800 92.200 C 210.660 94.070,212.272 95.600,212.382 95.600 C 212.492 95.600,211.060 94.070,209.200 92.200 C 207.340 90.330,205.728 88.800,205.618 88.800 C 205.508 88.800,206.940 90.330,208.800 92.200 M68.975 94.900 L 67.800 96.200 69.100 95.025 C 70.312 93.930,70.584 93.600,70.275 93.600 C 70.206 93.600,69.621 94.185,68.975 94.900 M117.199 95.500 C 117.199 95.665,119.674 95.753,122.699 95.696 C 132.879 95.504,133.852 95.359,125.500 95.279 C 120.935 95.236,117.200 95.335,117.199 95.500 M141.778 95.713 C 141.670 95.995,141.635 99.550,141.700 103.613 L 141.819 111.000 141.910 103.284 L 142.000 95.569 150.162 95.684 C 154.652 95.748,158.241 95.665,158.139 95.500 C 157.789 94.936,141.997 95.142,141.778 95.713 M330.478 95.411 C 330.680 95.613,330.547 96.451,329.686 100.400 C 329.470 101.390,328.908 104.000,328.437 106.200 C 327.965 108.400,327.409 110.920,327.200 111.800 C 326.991 112.680,326.176 116.460,325.389 120.200 C 324.603 123.940,323.698 128.092,323.379 129.426 C 323.061 130.760,322.800 132.069,322.800 132.336 C 322.800 132.845,325.609 131.025,337.321 122.925 C 344.554 117.923,345.412 117.453,345.051 118.700 C 344.939 119.085,344.465 121.290,343.997 123.600 C 342.500 130.989,343.009 130.188,337.380 134.000 C 334.619 135.870,329.804 139.164,326.680 141.320 C 323.556 143.476,320.759 145.382,320.464 145.556 C 319.969 145.848,319.409 147.864,318.396 153.000 C 318.180 154.100,317.844 155.720,317.651 156.600 C 316.329 162.626,315.600 166.202,315.600 166.664 C 315.600 167.106,319.567 167.200,338.176 167.200 C 353.148 167.200,360.838 167.338,361.006 167.610 C 361.269 168.035,359.025 179.918,358.382 181.500 L 358.017 182.400 326.409 182.400 C 301.383 182.400,294.800 182.296,294.800 181.900 C 294.800 181.625,295.073 180.140,295.406 178.600 C 295.739 177.060,296.459 173.640,297.005 171.000 C 297.551 168.360,298.249 165.030,298.556 163.600 C 299.316 160.054,299.255 160.044,295.018 162.998 C 291.505 165.447,290.390 166.004,290.407 165.300 C 290.411 165.135,290.692 163.470,291.030 161.600 C 291.369 159.730,291.810 157.230,292.011 156.045 C 292.212 154.860,292.426 153.856,292.488 153.813 C 302.774 146.686,302.008 147.511,303.026 142.463 C 303.366 140.778,303.896 138.320,304.204 137.000 C 304.512 135.680,305.409 131.540,306.195 127.800 C 306.982 124.060,307.813 120.190,308.041 119.200 C 308.837 115.746,309.183 114.154,310.608 107.400 C 311.396 103.660,312.326 99.385,312.675 97.900 L 313.308 95.200 321.787 95.200 C 326.451 95.200,330.362 95.295,330.478 95.411 M94.179 111.312 C 94.070 111.593,94.031 115.328,94.091 119.612 L 94.200 127.400 103.600 127.600 L 113.000 127.800 113.000 160.462 C 113.000 178.426,113.135 193.040,113.300 192.938 C 113.842 192.603,113.665 128.225,113.120 127.680 C 112.775 127.335,110.080 127.200,103.520 127.200 L 94.400 127.200 94.400 119.206 L 94.400 111.212 105.900 111.100 L 117.400 110.987 105.887 110.894 C 96.837 110.820,94.333 110.909,94.179 111.312 M136.112 111.095 C 137.164 111.177,138.784 111.176,139.712 111.092 C 140.640 111.008,139.780 110.941,137.800 110.942 C 135.820 110.943,135.060 111.012,136.112 111.095 M176.800 119.325 C 176.800 119.394,177.385 119.979,178.100 120.625 L 179.400 121.800 178.225 120.500 C 177.130 119.288,176.800 119.016,176.800 119.325 M134.136 127.506 C 133.881 127.668,136.221 127.752,139.336 127.693 C 148.269 127.524,149.219 127.350,141.600 127.278 C 137.750 127.242,134.391 127.344,134.136 127.506 M149.900 127.882 C 150.395 127.978,151.205 127.978,151.700 127.882 C 152.195 127.787,151.790 127.709,150.800 127.709 C 149.810 127.709,149.405 127.787,149.900 127.882 M159.600 130.125 C 159.600 130.194,160.185 130.779,160.900 131.425 L 162.200 132.600 161.025 131.300 C 159.930 130.088,159.600 129.816,159.600 130.125 M236.493 151.600 C 236.493 152.370,236.575 152.685,236.676 152.300 C 236.776 151.915,236.776 151.285,236.676 150.900 C 236.575 150.515,236.493 150.830,236.493 151.600 M138.321 152.299 C 140.588 152.370,144.188 152.370,146.321 152.298 C 148.455 152.226,146.600 152.168,142.200 152.168 C 137.800 152.168,136.055 152.227,138.321 152.299 M177.781 154.100 L 176.200 155.800 177.900 154.219 C 179.481 152.748,179.784 152.400,179.481 152.400 C 179.416 152.400,178.651 153.165,177.781 154.100 M236.953 160.200 C 236.953 162.840,237.018 163.868,237.097 162.484 C 237.175 161.101,237.174 158.941,237.095 157.684 C 237.016 156.428,236.952 157.560,236.953 160.200 M43.748 160.400 C 43.748 162.710,43.814 163.655,43.895 162.500 C 43.976 161.345,43.976 159.455,43.895 158.300 C 43.814 157.145,43.748 158.090,43.748 160.400 M179.983 164.100 C 181.641 165.866,182.000 166.184,182.000 165.883 C 182.000 165.819,181.145 164.964,180.100 163.983 L 178.200 162.200 179.983 164.100 M133.861 166.700 C 133.759 166.865,136.493 166.954,139.937 166.897 C 151.792 166.701,152.978 166.564,143.524 166.482 C 138.312 166.437,133.963 166.535,133.861 166.700 M236.493 168.800 C 236.493 169.570,236.575 169.885,236.676 169.500 C 236.776 169.115,236.776 168.485,236.676 168.100 C 236.575 167.715,236.493 168.030,236.493 168.800 M166.128 180.000 C 166.128 181.430,166.201 182.015,166.289 181.300 C 166.378 180.585,166.378 179.415,166.289 178.700 C 166.201 177.985,166.128 178.570,166.128 180.000 M186.537 181.000 C 186.539 182.760,186.609 183.430,186.693 182.489 C 186.778 181.549,186.777 180.109,186.691 179.289 C 186.605 178.470,186.536 179.240,186.537 181.000 M152.100 193.076 C 152.485 193.176,153.115 193.176,153.500 193.076 C 153.885 192.975,153.570 192.893,152.800 192.893 C 152.030 192.893,151.715 192.975,152.100 193.076 M94.079 201.076 C 94.036 205.518,94.135 209.237,94.300 209.339 C 94.465 209.442,94.553 207.067,94.496 204.063 C 94.305 193.982,94.160 192.940,94.079 201.076 M133.861 209.500 C 133.758 209.665,134.872 209.750,136.337 209.690 C 140.977 209.497,141.521 209.330,137.724 209.264 C 135.702 209.229,133.963 209.335,133.861 209.500 M141.786 217.200 L 141.800 225.000 149.771 225.109 C 154.156 225.168,157.882 225.078,158.052 224.909 C 158.222 224.739,154.684 224.652,150.189 224.716 L 142.017 224.831 141.895 217.116 L 141.773 209.400 141.786 217.200 M117.548 224.909 C 117.718 225.078,121.444 225.168,125.829 225.108 L 133.800 224.998 125.519 224.799 C 120.965 224.690,117.378 224.739,117.548 224.909 M259.192 228.100 C 258.765 228.981,258.770 228.983,259.405 228.200 C 260.084 227.364,261.992 228.909,261.998 230.300 C 261.999 230.575,262.201 230.800,262.446 230.800 C 262.733 230.800,262.683 230.479,262.307 229.900 C 261.985 229.405,261.471 228.595,261.165 228.100 C 260.858 227.605,260.387 227.200,260.118 227.200 C 259.849 227.200,259.432 227.605,259.192 228.100 M257.310 231.085 C 255.156 234.544,254.332 236.000,254.527 236.000 C 254.833 236.000,258.860 229.527,258.672 229.339 C 258.579 229.246,257.966 230.031,257.310 231.085 M74.400 230.925 C 74.400 230.994,74.985 231.579,75.700 232.225 L 77.000 233.400 75.825 232.100 C 74.730 230.888,74.400 230.616,74.400 230.925 M262.800 231.298 C 262.800 231.662,268.829 241.200,269.059 241.200 C 269.162 241.200,269.165 241.065,269.064 240.900 C 268.963 240.735,267.675 238.620,266.202 236.200 C 263.589 231.909,262.800 230.772,262.800 231.298 M252.128 239.486 C 251.068 241.183,250.020 242.896,249.800 243.292 C 249.580 243.688,248.036 246.215,246.369 248.906 C 242.067 255.854,241.510 256.800,241.727 256.800 C 241.928 256.800,246.000 250.507,246.000 250.198 C 246.000 250.101,247.250 248.060,248.777 245.663 C 250.305 243.266,251.928 240.640,252.385 239.827 C 252.841 239.014,253.502 237.910,253.854 237.374 C 254.205 236.839,254.394 236.400,254.274 236.400 C 254.155 236.400,253.189 237.789,252.128 239.486 M269.213 241.683 C 269.206 241.839,270.460 243.962,272.000 246.400 C 273.540 248.838,274.800 251.006,274.800 251.217 C 274.800 251.428,275.001 251.600,275.246 251.600 C 275.522 251.600,275.450 251.230,275.057 250.631 C 274.707 250.097,273.531 248.162,272.442 246.331 C 270.364 242.834,269.234 241.208,269.213 241.683 M275.600 252.210 C 275.600 252.559,278.856 257.600,279.082 257.600 C 279.197 257.600,279.031 257.195,278.712 256.700 C 278.393 256.205,277.635 254.945,277.028 253.900 C 276.014 252.155,275.600 251.665,275.600 252.210 M133.500 256.682 C 133.995 256.778,134.805 256.778,135.300 256.682 C 135.795 256.587,135.390 256.509,134.400 256.509 C 133.410 256.509,133.005 256.587,133.500 256.682 M145.505 256.683 C 146.002 256.779,146.722 256.775,147.105 256.675 C 147.487 256.575,147.080 256.496,146.200 256.501 C 145.320 256.505,145.007 256.587,145.505 256.683 M240.953 257.700 C 239.576 260.036,239.486 260.235,240.187 259.400 C 241.000 258.432,241.700 257.200,241.438 257.200 C 241.333 257.200,241.115 257.425,240.953 257.700 M279.891 259.290 C 280.281 260.110,280.741 260.785,280.914 260.790 C 281.272 260.801,280.762 259.780,279.820 258.600 C 279.306 257.956,279.320 258.091,279.891 259.290 M237.770 262.877 C 236.936 264.264,235.996 265.805,235.681 266.300 C 235.366 266.795,235.201 267.200,235.314 267.200 C 235.637 267.200,239.663 260.730,239.464 260.531 C 239.366 260.433,238.604 261.489,237.770 262.877 M281.200 261.383 C 281.200 261.484,282.460 263.562,284.000 266.000 C 285.540 268.438,286.800 270.501,286.800 270.584 C 286.800 270.861,293.279 280.995,293.716 281.400 C 293.953 281.620,293.831 281.292,293.445 280.670 C 292.031 278.396,286.213 268.893,283.911 265.100 C 281.791 261.605,281.200 260.796,281.200 261.383 M234.668 267.900 C 234.266 268.574,228.006 278.824,227.358 279.870 C 226.874 280.651,226.844 280.815,227.260 280.400 C 227.591 280.070,229.124 277.730,230.666 275.200 C 234.957 268.161,235.281 267.600,235.056 267.600 C 234.941 267.600,234.767 267.735,234.668 267.900 M225.822 282.222 C 225.445 282.798,225.216 283.349,225.314 283.447 C 225.412 283.545,225.800 283.154,226.178 282.578 C 226.555 282.002,226.784 281.451,226.686 281.353 C 226.588 281.255,226.200 281.646,225.822 282.222 M294.000 282.187 C 294.000 282.393,297.673 288.370,298.854 290.084 C 299.264 290.680,299.600 291.355,299.600 291.584 C 299.600 291.813,299.801 292.000,300.046 292.000 C 300.314 292.000,300.220 291.584,299.811 290.961 C 299.436 290.389,298.053 288.139,296.737 285.961 C 294.590 282.407,294.000 281.593,294.000 282.187 M224.553 284.500 C 223.176 286.836,223.086 287.035,223.787 286.200 C 224.600 285.232,225.300 284.000,225.038 284.000 C 224.933 284.000,224.715 284.225,224.553 284.500 M220.688 290.700 C 217.126 296.469,217.105 296.532,218.500 297.208 C 219.312 297.602,219.332 297.589,218.700 297.078 C 217.679 296.252,217.519 296.652,221.400 290.354 C 222.456 288.640,223.202 287.200,223.034 287.200 C 222.932 287.200,221.876 288.775,220.688 290.700 M300.400 292.621 C 300.400 292.743,300.850 293.505,301.400 294.314 C 302.588 296.062,302.618 296.336,301.700 297.078 C 301.068 297.589,301.088 297.602,301.900 297.208 C 303.045 296.653,303.030 296.263,301.783 294.135 C 300.851 292.544,300.400 292.051,300.400 292.621 M220.200 298.220 C 221.380 299.162,222.401 299.672,222.390 299.314 C 222.385 299.141,221.710 298.681,220.890 298.291 C 219.691 297.720,219.556 297.706,220.200 298.220 M298.820 298.656 C 297.841 299.218,296.082 300.291,294.912 301.039 C 293.742 301.788,292.704 302.400,292.605 302.400 C 292.309 302.400,286.000 306.466,286.000 306.657 C 286.000 306.855,288.778 305.280,291.800 303.369 C 292.900 302.673,295.375 301.173,297.300 300.036 C 299.225 298.899,300.800 297.886,300.800 297.785 C 300.800 297.521,300.783 297.528,298.820 298.656 M222.800 299.762 C 222.800 299.851,225.275 301.408,228.300 303.223 C 234.757 307.097,234.400 306.895,234.400 306.668 C 234.400 306.479,229.277 303.200,228.981 303.200 C 228.886 303.200,227.545 302.390,226.000 301.400 C 223.294 299.665,222.800 299.413,222.800 299.762 M217.719 306.534 C 218.135 307.617,224.587 316.761,224.949 316.781 C 225.141 316.791,225.051 316.458,224.749 316.039 C 218.402 307.243,217.823 306.274,219.824 307.787 C 220.251 308.110,220.780 308.375,221.000 308.375 C 221.501 308.375,220.175 307.336,218.642 306.529 C 217.601 305.981,217.507 305.982,217.719 306.534 M301.396 306.655 C 300.958 306.976,298.924 308.239,296.876 309.462 C 294.828 310.685,293.240 311.773,293.347 311.881 C 293.455 311.988,294.808 311.257,296.354 310.257 C 300.078 307.848,301.785 306.968,301.377 307.667 C 300.692 308.841,287.397 327.836,286.914 328.331 C 286.184 329.078,285.420 330.558,285.926 330.246 C 286.149 330.108,289.443 325.541,293.247 320.098 C 297.050 314.654,300.762 309.360,301.495 308.332 C 302.861 306.419,302.813 305.615,301.396 306.655 M235.600 307.537 C 236.715 308.465,240.829 310.751,240.200 310.094 C 239.980 309.864,239.114 309.295,238.274 308.830 C 237.435 308.365,236.265 307.697,235.674 307.345 L 234.600 306.705 235.600 307.537 M281.239 309.217 C 279.171 310.513,277.281 311.645,277.039 311.732 C 276.798 311.819,276.694 311.995,276.810 312.122 C 276.925 312.249,278.414 311.464,280.118 310.377 C 281.822 309.289,283.348 308.396,283.508 308.391 C 283.669 308.386,284.250 308.030,284.800 307.600 C 286.749 306.075,284.948 306.893,281.239 309.217 M221.600 308.541 C 221.600 308.771,231.138 314.800,231.502 314.800 C 232.028 314.800,230.891 314.011,226.600 311.398 C 224.180 309.925,222.065 308.637,221.900 308.536 C 221.735 308.435,221.600 308.438,221.600 308.541 M241.400 311.020 C 242.580 311.962,243.601 312.472,243.590 312.114 C 243.585 311.941,242.910 311.481,242.090 311.091 C 240.891 310.520,240.756 310.506,241.400 311.020 M286.946 315.541 C 280.953 319.207,278.307 320.982,280.600 319.799 C 281.260 319.458,282.449 318.779,283.243 318.290 C 284.037 317.800,286.467 316.335,288.643 315.034 C 293.167 312.329,292.987 312.451,292.767 312.241 C 292.675 312.154,290.056 313.639,286.946 315.541 M244.769 313.121 C 246.215 314.134,249.600 316.042,249.600 315.844 C 249.600 315.592,244.475 312.396,244.110 312.421 C 243.939 312.433,244.236 312.748,244.769 313.121 M274.800 313.233 L 273.800 314.048 275.100 313.414 C 275.815 313.065,276.400 312.694,276.400 312.590 C 276.400 312.192,275.763 312.448,274.800 313.233 M271.800 314.966 C 270.920 315.479,268.082 317.181,265.493 318.749 C 259.788 322.204,260.610 322.200,254.972 318.800 C 252.418 317.260,250.219 316.000,250.085 316.000 C 249.663 316.000,250.543 316.693,252.000 317.508 C 252.770 317.939,254.912 319.215,256.759 320.342 L 260.119 322.392 261.359 321.649 C 262.042 321.240,265.075 319.428,268.100 317.622 C 271.125 315.817,273.600 314.263,273.600 314.170 C 273.600 313.924,273.555 313.944,271.800 314.966 M232.600 315.407 C 233.040 315.766,233.760 316.235,234.200 316.451 L 235.000 316.844 234.200 316.193 C 233.760 315.834,233.040 315.365,232.600 315.149 L 231.800 314.756 232.600 315.407 M235.800 317.444 C 236.240 317.784,238.099 318.953,239.931 320.042 C 241.762 321.131,243.697 322.307,244.231 322.657 C 244.764 323.006,245.200 323.197,245.200 323.081 C 245.200 322.820,235.663 316.795,235.278 316.813 C 235.125 316.820,235.360 317.104,235.800 317.444 M225.872 318.330 C 226.272 319.062,227.104 320.232,227.721 320.930 L 228.841 322.200 228.121 321.000 C 227.724 320.340,227.178 319.530,226.908 319.200 C 226.637 318.870,226.129 318.240,225.779 317.800 C 225.332 317.238,225.360 317.395,225.872 318.330 M277.514 321.400 C 276.705 321.950,275.949 322.400,275.834 322.400 C 275.503 322.400,269.200 326.459,269.200 326.673 C 269.200 326.887,270.531 326.115,275.700 322.903 C 278.718 321.028,279.569 320.400,279.093 320.400 C 279.034 320.400,278.323 320.850,277.514 321.400 M229.021 322.800 C 229.423 323.511,232.775 328.111,233.102 328.400 C 233.452 328.710,232.785 327.579,231.449 325.600 C 230.237 323.806,228.377 321.660,229.021 322.800 M245.800 323.525 C 246.020 323.758,247.820 324.925,249.800 326.118 C 251.780 327.310,254.905 329.206,256.745 330.331 L 260.091 332.375 261.822 331.409 C 264.424 329.956,268.800 327.154,268.800 326.941 C 268.800 326.837,268.665 326.833,268.500 326.931 C 268.335 327.029,266.529 328.120,264.486 329.355 C 259.641 332.284,260.962 332.598,250.400 326.002 C 246.942 323.842,245.226 322.918,245.800 323.525 M234.073 330.084 C 234.583 330.790,238.540 336.415,242.867 342.584 C 253.277 357.425,254.839 359.600,255.088 359.600 C 255.203 359.600,255.051 359.250,254.749 358.821 C 254.447 358.393,249.610 351.469,244.000 343.436 C 238.390 335.402,233.653 328.823,233.473 328.815 C 233.293 328.807,233.563 329.378,234.073 330.084 M283.234 333.629 C 282.074 335.185,281.204 336.537,281.301 336.634 C 281.449 336.782,284.264 333.065,285.320 331.326 C 286.152 329.957,285.140 331.074,283.234 333.629 M270.421 351.850 L 260.242 366.471 259.510 365.467 C 257.996 363.387,257.174 362.680,258.460 364.562 C 259.197 365.641,259.980 366.531,260.200 366.539 C 260.420 366.547,264.470 361.040,269.200 354.302 C 273.930 347.563,278.571 340.958,279.514 339.625 C 280.456 338.291,281.086 337.207,280.914 337.215 C 280.741 337.223,276.019 343.809,270.421 351.850 M256.000 361.200 C 256.470 361.860,256.942 362.400,257.050 362.400 C 257.157 362.400,256.926 361.860,256.536 361.200 C 256.146 360.540,255.674 360.000,255.487 360.000 C 255.299 360.000,255.530 360.540,256.000 361.200 " stroke="none" fill="#949ccb" fill-rule="evenodd"></path><path id="path2" d="M257.800 0.800 C 257.664 1.020,256.663 1.200,255.576 1.200 C 254.489 1.200,253.600 1.357,253.600 1.548 C 253.600 1.740,252.525 2.018,251.212 2.167 C 249.899 2.315,248.718 2.609,248.589 2.818 C 248.459 3.028,247.913 3.200,247.376 3.200 C 246.839 3.200,246.400 3.380,246.400 3.600 C 246.400 3.820,245.950 4.000,245.400 4.000 C 244.850 4.000,244.400 4.180,244.400 4.400 C 244.400 4.620,244.074 4.800,243.676 4.800 C 243.279 4.800,242.604 5.064,242.176 5.387 C 241.749 5.710,241.085 5.980,240.700 5.987 C 240.315 5.994,240.000 6.180,240.000 6.400 C 240.000 6.620,239.823 6.800,239.608 6.800 C 239.098 6.800,234.641 9.632,234.467 10.067 C 234.393 10.250,234.110 10.400,233.838 10.400 C 233.566 10.400,232.313 11.390,231.053 12.600 C 229.794 13.810,228.604 14.800,228.409 14.800 C 228.214 14.800,227.646 15.385,227.146 16.100 C 226.646 16.815,225.856 17.760,225.389 18.200 C 224.202 19.318,221.873 22.386,221.219 23.693 C 220.918 24.295,220.381 25.105,220.026 25.493 C 218.705 26.938,214.407 36.800,215.098 36.800 C 215.242 36.800,215.144 37.016,214.880 37.280 C 214.616 37.544,214.394 38.129,214.387 38.580 C 214.380 39.031,214.142 39.706,213.858 40.079 C 213.288 40.830,213.166 40.789,209.600 38.642 C 208.610 38.046,207.305 37.349,206.700 37.092 C 206.095 36.835,205.600 36.484,205.600 36.312 C 205.600 36.141,205.240 36.000,204.800 36.000 C 204.360 36.000,204.000 35.854,204.000 35.675 C 204.000 35.496,203.334 35.091,202.520 34.775 C 201.706 34.459,200.236 33.795,199.252 33.300 C 198.269 32.805,197.225 32.400,196.932 32.400 C 196.639 32.400,196.400 32.264,196.400 32.098 C 196.400 31.769,194.055 30.869,192.300 30.525 C 191.695 30.406,191.200 30.150,191.200 29.955 C 191.200 29.760,190.840 29.600,190.400 29.600 C 189.960 29.600,189.600 29.420,189.600 29.200 C 189.600 28.980,189.180 28.800,188.667 28.800 C 188.153 28.800,187.617 28.684,187.475 28.541 C 187.046 28.113,183.064 26.827,182.124 26.813 C 181.642 26.806,181.136 26.620,181.000 26.400 C 180.864 26.180,180.324 26.000,179.800 26.000 C 179.276 26.000,178.736 25.820,178.600 25.600 C 178.464 25.380,177.902 25.200,177.350 25.200 C 176.799 25.200,176.008 25.018,175.592 24.796 C 175.177 24.573,173.749 24.278,172.418 24.139 C 171.088 24.000,170.000 23.732,170.000 23.543 C 170.000 23.354,169.190 23.200,168.200 23.200 C 167.210 23.200,166.400 23.020,166.400 22.800 C 166.400 22.580,165.410 22.400,164.200 22.400 C 162.990 22.400,162.000 22.220,162.000 22.000 C 162.000 21.780,161.341 21.600,160.536 21.600 C 159.731 21.600,156.356 21.314,153.036 20.964 C 147.233 20.352,133.911 20.348,127.600 20.956 C 126.390 21.072,123.909 21.291,122.088 21.442 C 120.266 21.593,118.680 21.870,118.564 22.058 C 118.448 22.246,117.463 22.400,116.376 22.400 C 115.289 22.400,114.400 22.580,114.400 22.800 C 114.400 23.020,113.590 23.200,112.600 23.200 C 111.610 23.200,110.800 23.344,110.800 23.521 C 110.800 23.697,109.495 24.045,107.900 24.293 C 103.555 24.970,102.400 25.254,102.400 25.645 C 102.400 25.840,101.871 26.000,101.224 26.000 C 100.577 26.000,99.936 26.180,99.800 26.400 C 99.664 26.620,99.141 26.800,98.638 26.800 C 98.135 26.800,96.210 27.360,94.362 28.046 C 92.513 28.731,90.595 29.382,90.100 29.492 C 89.605 29.603,89.200 29.852,89.200 30.047 C 89.200 30.241,88.885 30.401,88.500 30.402 C 88.115 30.404,87.284 30.674,86.654 31.002 C 86.024 31.331,85.259 31.600,84.954 31.600 C 84.649 31.600,84.400 31.780,84.400 32.000 C 84.400 32.220,84.128 32.400,83.795 32.400 C 83.462 32.400,82.877 32.565,82.495 32.766 C 82.113 32.967,80.360 33.818,78.600 34.656 C 76.840 35.494,75.310 36.274,75.200 36.390 C 74.981 36.620,72.594 37.948,70.400 39.060 C 69.630 39.450,68.762 40.001,68.471 40.285 C 68.181 40.568,67.768 40.800,67.555 40.800 C 67.103 40.800,64.663 42.459,64.467 42.900 C 64.393 43.065,64.168 43.200,63.965 43.200 C 63.282 43.200,52.699 50.857,50.994 52.584 C 50.551 53.033,49.504 53.913,48.668 54.540 C 46.941 55.836,36.422 66.316,34.600 68.557 C 33.940 69.368,32.725 70.790,31.900 71.716 C 31.075 72.642,30.400 73.536,30.400 73.703 C 30.400 73.871,29.860 74.572,29.200 75.263 C 28.540 75.954,28.000 76.659,28.000 76.831 C 28.000 77.002,27.775 77.381,27.500 77.671 C 26.448 78.783,24.800 81.165,24.800 81.573 C 24.800 81.808,24.650 82.000,24.468 82.000 C 24.285 82.000,23.880 82.495,23.568 83.100 C 23.255 83.705,22.673 84.560,22.273 85.000 C 21.872 85.440,21.445 86.295,21.323 86.900 C 21.200 87.505,20.971 88.000,20.814 88.000 C 20.656 88.000,20.043 88.855,19.452 89.900 C 18.047 92.382,17.450 93.355,17.180 93.600 C 16.839 93.910,14.800 98.374,14.800 98.811 C 14.800 99.025,14.620 99.200,14.400 99.200 C 14.180 99.200,14.000 99.560,14.000 100.000 C 14.000 100.440,13.820 100.800,13.600 100.800 C 13.380 100.800,13.200 101.072,13.200 101.405 C 13.200 101.738,13.029 102.323,12.819 102.705 C 12.480 103.325,11.732 105.062,10.799 107.400 C 10.623 107.840,10.085 109.089,9.603 110.175 C 9.120 111.261,8.628 112.751,8.509 113.485 C 8.390 114.219,8.136 114.916,7.946 115.033 C 7.756 115.151,7.600 115.651,7.600 116.144 C 7.600 116.637,7.451 117.211,7.270 117.420 C 7.088 117.629,6.707 118.610,6.423 119.600 C 6.139 120.590,5.657 122.197,5.353 123.171 C 5.049 124.145,4.800 125.450,4.800 126.071 C 4.800 126.692,4.620 127.200,4.400 127.200 C 4.180 127.200,4.000 127.909,4.000 128.776 C 4.000 129.643,3.820 130.464,3.600 130.600 C 3.380 130.736,3.200 131.455,3.200 132.198 C 3.200 132.940,3.023 134.012,2.808 134.580 C 2.592 135.147,2.295 137.325,2.148 139.419 C 2.000 141.514,1.727 143.321,1.540 143.437 C 1.353 143.553,1.200 145.426,1.200 147.600 C 1.200 149.804,1.023 151.662,0.800 151.800 C 0.554 151.952,0.400 155.204,0.400 160.224 C 0.400 165.408,0.546 168.400,0.800 168.400 C 1.041 168.400,1.200 170.059,1.200 172.576 C 1.200 174.873,1.353 176.847,1.539 176.962 C 1.726 177.078,1.998 178.753,2.144 180.686 C 2.458 184.851,2.554 185.487,2.922 185.855 C 3.075 186.008,3.200 186.913,3.200 187.867 C 3.200 188.820,3.380 189.600,3.600 189.600 C 3.820 189.600,4.000 190.410,4.000 191.400 C 4.000 192.390,4.180 193.200,4.400 193.200 C 4.620 193.200,4.800 193.734,4.800 194.386 C 4.800 195.038,5.044 196.343,5.342 197.286 C 5.641 198.229,6.122 199.810,6.412 200.800 C 6.702 201.790,7.088 202.771,7.270 202.980 C 7.451 203.189,7.600 203.686,7.600 204.085 C 7.600 204.484,7.758 205.123,7.951 205.505 C 8.144 205.887,8.525 206.920,8.797 207.800 C 9.332 209.528,9.763 210.598,11.294 214.000 C 11.839 215.210,12.535 216.920,12.840 217.800 C 13.146 218.680,13.496 219.490,13.618 219.600 C 13.960 219.908,16.000 224.371,16.000 224.811 C 16.000 225.025,16.180 225.200,16.400 225.200 C 16.620 225.200,16.800 225.560,16.800 226.000 C 16.800 226.440,16.980 226.800,17.200 226.800 C 17.420 226.800,17.600 227.048,17.600 227.351 C 17.600 227.654,17.870 228.126,18.200 228.400 C 18.530 228.674,18.800 229.236,18.800 229.649 C 18.800 230.062,18.950 230.400,19.133 230.400 C 19.317 230.400,19.992 231.404,20.633 232.631 C 21.275 233.858,22.070 235.163,22.400 235.531 C 22.730 235.899,23.255 236.695,23.568 237.300 C 23.880 237.905,24.285 238.400,24.468 238.400 C 24.650 238.400,24.800 238.642,24.800 238.939 C 24.800 239.235,25.115 239.850,25.500 240.305 C 26.971 242.044,27.424 242.637,28.167 243.800 C 28.589 244.460,29.264 245.291,29.667 245.647 C 30.070 246.003,30.402 246.453,30.403 246.647 C 30.405 246.841,30.998 247.630,31.719 248.400 C 32.441 249.170,33.565 250.507,34.216 251.371 C 35.636 253.255,45.000 262.667,47.974 265.200 C 49.137 266.190,50.473 267.364,50.944 267.810 C 51.415 268.255,52.516 269.155,53.392 269.810 C 55.219 271.176,56.294 272.023,56.945 272.612 C 57.195 272.838,58.255 273.558,59.299 274.212 C 60.344 274.865,61.199 275.535,61.199 275.700 C 61.200 275.865,61.470 276.000,61.800 276.000 C 62.130 276.000,62.400 276.177,62.400 276.392 C 62.400 276.608,62.850 276.898,63.400 277.036 C 63.950 277.174,64.400 277.427,64.400 277.598 C 64.400 277.769,64.985 278.204,65.700 278.565 C 67.142 279.294,68.494 280.094,68.800 280.400 C 69.159 280.759,71.361 282.005,73.200 282.890 C 74.190 283.366,75.090 283.856,75.200 283.980 C 75.787 284.638,86.307 289.389,86.900 289.264 C 87.065 289.229,87.200 289.380,87.200 289.600 C 87.200 289.820,87.635 290.000,88.167 290.000 C 88.698 290.000,89.193 290.135,89.267 290.300 C 89.449 290.710,92.979 292.017,95.300 292.534 C 96.345 292.767,97.200 293.102,97.200 293.279 C 97.200 293.456,97.639 293.600,98.176 293.600 C 98.713 293.600,99.264 293.780,99.400 294.000 C 99.536 294.220,100.147 294.400,100.757 294.400 C 101.367 294.400,101.990 294.524,102.141 294.675 C 102.605 295.139,107.710 296.353,109.300 296.377 C 110.125 296.390,110.800 296.580,110.800 296.800 C 110.800 297.020,111.419 297.200,112.176 297.200 C 112.933 297.200,113.651 297.358,113.770 297.551 C 113.889 297.745,115.025 298.012,116.294 298.145 C 117.562 298.278,119.860 298.561,121.400 298.773 C 122.940 298.985,125.685 299.168,127.500 299.179 C 129.420 299.191,130.800 299.367,130.800 299.600 C 130.800 299.855,133.997 300.000,139.592 300.000 L 148.385 300.000 148.569 299.100 C 148.670 298.605,148.860 295.230,148.991 291.600 C 149.288 283.407,150.625 274.870,152.937 266.400 C 154.004 262.494,155.645 257.835,156.433 256.477 C 157.416 254.782,157.409 254.758,156.100 255.408 C 152.824 257.037,133.578 257.175,124.594 255.634 C 117.834 254.475,109.293 252.126,105.000 250.246 C 104.340 249.956,103.170 249.479,102.400 249.184 C 85.177 242.584,64.817 224.408,56.212 207.949 C 55.593 206.767,54.517 204.720,53.819 203.400 C 51.816 199.611,48.658 191.695,47.596 187.800 C 46.329 183.151,46.013 181.822,45.457 178.800 C 44.016 170.979,43.858 169.126,43.873 160.200 C 43.893 148.804,44.649 143.167,47.562 132.700 C 49.231 126.702,52.406 119.370,56.698 111.600 C 66.830 93.259,86.093 77.136,107.200 69.329 C 109.781 68.375,116.882 66.267,118.800 65.886 C 119.350 65.776,121.214 65.402,122.943 65.055 C 137.013 62.223,156.989 63.614,170.800 68.385 C 219.756 85.298,246.818 135.300,233.915 185.000 L 232.981 188.600 231.190 189.155 C 228.259 190.064,227.630 190.410,229.400 190.140 C 230.280 190.006,231.695 189.566,232.545 189.162 C 233.394 188.759,236.094 188.057,238.545 187.602 C 240.995 187.147,243.990 186.591,245.200 186.367 C 246.410 186.144,251.000 185.865,255.400 185.749 L 263.400 185.537 265.261 188.268 C 272.814 199.358,283.842 208.111,298.200 214.413 C 298.931 214.734,303.677 216.295,306.600 217.177 C 311.435 218.635,319.133 219.606,325.835 219.603 C 331.049 219.600,338.985 218.768,339.555 218.163 C 339.690 218.021,339.080 218.007,338.200 218.133 C 307.257 222.556,280.259 210.409,263.099 184.341 C 248.455 162.096,248.529 129.478,263.276 106.191 L 264.296 104.581 269.248 104.068 C 287.718 102.153,302.596 92.044,310.998 75.700 C 312.044 73.665,313.057 72.000,313.250 72.000 C 313.442 72.000,313.600 71.640,313.600 71.200 C 313.600 70.760,313.780 70.400,314.000 70.400 C 314.220 70.400,314.400 70.038,314.400 69.595 C 314.400 69.152,314.562 68.477,314.760 68.095 C 315.447 66.767,316.410 61.385,316.405 58.900 C 316.402 57.497,316.575 56.400,316.800 56.400 C 317.039 56.400,317.200 54.867,317.200 52.600 C 317.200 50.333,317.039 48.800,316.800 48.800 C 316.577 48.800,316.395 47.693,316.390 46.300 C 316.381 44.166,316.049 42.350,314.525 36.094 C 314.404 35.596,314.146 35.090,313.952 34.970 C 313.759 34.851,313.600 34.403,313.600 33.976 C 313.600 33.549,313.420 33.200,313.200 33.200 C 312.980 33.200,312.800 32.846,312.800 32.414 C 312.800 31.537,311.567 28.674,311.100 28.467 C 310.935 28.393,310.800 27.988,310.800 27.567 C 310.800 27.145,310.620 26.800,310.400 26.800 C 310.180 26.800,310.000 26.634,310.000 26.432 C 310.000 24.949,299.043 12.004,297.783 11.998 C 297.572 11.997,296.848 11.479,296.173 10.846 C 295.498 10.214,294.418 9.400,293.773 9.038 C 293.128 8.676,291.880 7.931,291.000 7.383 C 290.120 6.835,288.950 6.207,288.400 5.988 C 287.850 5.769,286.708 5.232,285.862 4.795 C 285.016 4.358,283.981 4.000,283.562 4.000 C 283.143 4.000,282.800 3.856,282.800 3.680 C 282.800 3.214,280.514 2.479,278.091 2.166 C 276.931 2.017,275.885 1.738,275.767 1.547 C 275.649 1.356,274.674 1.200,273.600 1.200 C 272.526 1.200,271.536 1.020,271.400 0.800 C 271.251 0.560,268.537 0.400,264.600 0.400 C 260.663 0.400,257.949 0.560,257.800 0.800 M281.972 15.254 C 294.572 19.262,298.501 33.029,289.600 41.986 C 287.603 43.995,286.765 44.546,283.600 45.923 C 282.102 46.575,278.036 47.299,277.350 47.036 C 275.906 46.482,273.088 48.976,272.589 51.250 C 271.682 55.382,274.913 58.792,279.749 58.806 C 293.344 58.844,299.768 76.194,289.856 86.106 C 277.301 98.661,256.459 83.867,264.157 67.864 C 265.815 64.415,265.942 62.917,264.754 60.804 C 262.650 57.060,257.350 56.591,254.797 59.924 C 254.343 60.516,253.265 61.932,252.399 63.072 C 243.245 75.127,224.282 68.481,224.233 53.200 C 224.180 36.938,243.711 31.214,253.596 44.594 C 258.788 51.622,268.249 46.470,264.238 38.799 C 257.709 26.314,269.119 11.166,281.972 15.254 M117.467 95.867 C 117.320 96.013,117.200 99.523,117.200 103.667 L 117.200 111.200 105.800 111.200 L 94.400 111.200 94.400 119.200 L 94.400 127.200 103.551 127.200 C 110.777 127.200,112.797 127.314,113.153 127.744 C 113.482 128.140,113.577 137.072,113.502 160.644 L 113.400 193.000 103.892 193.107 L 94.383 193.215 94.492 201.307 L 94.600 209.400 105.892 209.400 L 117.184 209.400 117.292 217.000 L 117.400 224.600 125.491 224.708 L 133.583 224.817 133.691 217.108 L 133.800 209.400 136.999 209.281 C 142.441 209.080,142.000 208.379,142.000 217.216 L 142.000 224.817 150.100 224.708 L 158.200 224.600 158.308 216.700 C 158.417 208.828,158.420 208.800,159.309 208.800 C 163.545 208.800,171.624 205.922,176.200 202.783 C 190.887 192.708,189.555 166.427,174.039 160.145 C 170.677 158.784,170.679 158.790,173.100 157.563 C 186.198 150.925,188.143 129.793,176.622 119.286 C 173.011 115.991,167.622 113.634,160.200 112.101 L 158.600 111.771 158.400 103.785 L 158.200 95.800 150.100 95.692 L 142.000 95.583 142.000 103.149 C 142.000 111.845,142.337 111.200,137.800 111.200 C 133.264 111.200,133.600 111.844,133.600 103.157 L 133.600 95.600 125.667 95.600 C 121.303 95.600,117.613 95.720,117.467 95.867 M154.458 128.145 C 161.039 129.619,164.000 133.246,164.000 139.832 C 164.000 145.877,161.277 149.534,155.366 151.429 C 153.260 152.104,136.681 152.758,134.642 152.246 L 133.600 151.985 133.600 139.826 C 133.600 130.488,133.716 127.613,134.100 127.437 C 135.127 126.965,151.774 127.544,154.458 128.145 M157.800 167.271 C 168.637 170.983,169.511 186.823,159.139 191.534 C 156.018 192.952,153.068 193.245,143.200 193.120 L 133.800 193.000 133.694 180.203 C 133.636 173.165,133.684 167.158,133.800 166.855 C 134.097 166.081,155.405 166.451,157.800 167.271 M223.600 191.563 C 221.950 192.170,220.285 192.788,219.900 192.934 C 219.515 193.080,218.904 193.294,218.543 193.409 C 218.181 193.525,217.979 193.712,218.093 193.826 C 218.278 194.012,220.429 193.321,222.600 192.378 C 223.040 192.187,224.345 191.733,225.500 191.369 C 227.526 190.731,228.143 190.369,227.100 190.429 C 226.825 190.445,225.250 190.955,223.600 191.563 M213.264 195.664 C 212.309 196.103,211.607 196.540,211.702 196.636 C 211.899 196.832,215.600 195.262,215.600 194.981 C 215.600 194.679,215.080 194.831,213.264 195.664 M207.800 198.465 C 192.388 206.461,176.182 221.223,167.144 235.500 C 165.548 238.022,166.727 236.761,168.827 233.700 C 169.997 231.995,171.064 230.510,171.198 230.400 C 171.332 230.290,171.973 229.480,172.621 228.600 C 173.270 227.720,173.980 226.799,174.200 226.552 C 174.420 226.306,175.410 225.139,176.400 223.960 C 182.791 216.346,198.404 203.356,203.800 201.163 C 204.668 200.810,209.600 197.921,209.600 197.766 C 209.600 197.534,209.584 197.540,207.800 198.465 M259.700 226.665 C 258.934 226.974,259.106 227.550,259.901 227.342 C 260.373 227.218,260.844 227.567,261.340 228.407 C 261.746 229.094,262.163 229.570,262.268 229.466 C 262.479 229.254,260.716 226.395,260.400 226.437 C 260.290 226.451,259.975 226.554,259.700 226.665 M258.276 228.700 C 258.156 229.085,257.666 230.030,257.186 230.800 C 256.449 231.981,256.438 232.048,257.114 231.226 C 258.348 229.725,259.287 228.000,258.869 228.000 C 258.662 228.000,258.395 228.315,258.276 228.700 M262.757 230.700 C 263.689 232.396,264.431 233.027,263.709 231.510 C 263.319 230.690,262.859 230.015,262.686 230.010 C 262.513 230.004,262.545 230.315,262.757 230.700 M254.428 235.050 C 253.514 236.507,252.845 237.778,252.940 237.873 C 253.035 237.969,253.792 236.911,254.621 235.523 C 256.487 232.399,256.487 232.400,256.268 232.400 C 256.170 232.400,255.342 233.592,254.428 235.050 M265.034 234.300 C 265.433 234.905,266.194 236.174,266.725 237.121 C 267.257 238.067,267.774 238.759,267.875 238.658 C 268.081 238.453,264.849 233.200,264.518 233.200 C 264.403 233.200,264.635 233.695,265.034 234.300 M164.485 239.712 C 162.486 242.878,159.892 248.003,160.295 247.990 C 160.463 247.985,161.123 246.860,161.763 245.490 C 162.403 244.121,163.226 242.550,163.591 242.000 C 164.732 240.284,166.442 237.200,166.253 237.200 C 166.153 237.200,165.358 238.331,164.485 239.712 M251.353 240.100 C 249.976 242.436,249.886 242.635,250.587 241.800 C 251.400 240.832,252.100 239.600,251.838 239.600 C 251.733 239.600,251.515 239.825,251.353 240.100 M269.388 241.426 C 269.772 242.101,270.444 243.091,270.882 243.626 C 271.554 244.447,271.537 244.349,270.778 243.000 C 270.282 242.120,269.610 241.130,269.284 240.800 C 268.868 240.379,268.899 240.565,269.388 241.426 M249.054 243.773 C 248.119 245.200,248.246 245.504,249.246 244.233 C 249.711 243.642,250.005 243.072,249.900 242.966 C 249.795 242.861,249.414 243.224,249.054 243.773 M272.306 246.100 C 272.730 246.815,273.485 248.084,273.984 248.921 C 274.483 249.758,274.968 250.365,275.062 250.271 C 275.251 250.083,272.026 244.800,271.723 244.800 C 271.619 244.800,271.882 245.385,272.306 246.100 M246.684 247.463 C 246.070 248.474,245.644 249.377,245.737 249.471 C 245.830 249.564,246.466 248.731,247.150 247.620 C 247.833 246.509,248.259 245.606,248.096 245.613 C 247.933 245.620,247.298 246.452,246.684 247.463 M158.457 251.257 C 157.761 252.834,157.278 254.211,157.384 254.318 C 157.491 254.424,157.772 253.991,158.010 253.355 C 158.247 252.720,158.813 251.426,159.267 250.479 C 159.720 249.533,160.009 248.675,159.908 248.574 C 159.806 248.473,159.154 249.680,158.457 251.257 M244.953 250.500 C 243.576 252.836,243.486 253.035,244.187 252.200 C 245.000 251.232,245.700 250.000,245.438 250.000 C 245.333 250.000,245.115 250.225,244.953 250.500 M276.039 252.300 C 277.392 254.544,278.000 255.410,278.000 255.095 C 278.000 254.702,275.577 250.800,275.333 250.800 C 275.224 250.800,275.542 251.475,276.039 252.300 M241.039 256.800 C 240.440 257.900,240.036 258.800,240.141 258.800 C 240.246 258.800,240.885 257.900,241.562 256.800 C 242.239 255.700,242.643 254.800,242.460 254.800 C 242.277 254.800,241.637 255.700,241.039 256.800 M279.250 257.620 C 279.934 258.731,280.570 259.564,280.663 259.471 C 280.890 259.243,278.680 255.629,278.304 255.613 C 278.141 255.606,278.567 256.509,279.250 257.620 M239.200 259.583 C 239.200 259.794,237.931 261.975,236.381 264.431 C 234.830 266.886,233.641 268.974,233.738 269.072 C 233.836 269.169,234.999 267.455,236.323 265.264 C 237.647 263.072,239.036 260.811,239.411 260.239 C 239.820 259.616,239.914 259.200,239.646 259.200 C 239.401 259.200,239.200 259.372,239.200 259.583 M281.362 260.939 C 281.751 261.566,283.153 263.872,284.477 266.064 C 285.801 268.255,286.985 269.949,287.107 269.827 C 287.229 269.705,287.030 269.275,286.664 268.871 C 286.299 268.467,286.000 268.022,286.000 267.882 C 286.000 267.544,281.623 260.711,281.079 260.200 C 280.845 259.980,280.972 260.313,281.362 260.939 M231.219 272.846 C 230.086 274.631,229.241 276.175,229.343 276.276 C 229.444 276.377,230.155 275.388,230.922 274.078 C 231.690 272.768,232.627 271.225,233.005 270.648 C 233.383 270.072,233.599 269.600,233.486 269.600 C 233.373 269.600,232.353 271.061,231.219 272.846 M287.795 271.448 C 288.173 272.025,289.110 273.568,289.878 274.878 C 290.645 276.188,291.356 277.177,291.457 277.076 C 291.661 276.873,287.643 270.400,287.314 270.400 C 287.201 270.400,287.417 270.872,287.795 271.448 M228.027 277.962 C 227.076 279.298,226.914 280.204,227.842 279.000 C 228.648 277.954,229.277 276.800,229.041 276.800 C 228.939 276.800,228.482 277.323,228.027 277.962 M226.553 280.500 C 225.176 282.836,225.086 283.035,225.787 282.200 C 226.600 281.232,227.300 280.000,227.038 280.000 C 226.933 280.000,226.715 280.225,226.553 280.500 M293.856 281.300 C 295.489 283.995,297.193 286.540,297.196 286.290 C 297.201 285.897,293.993 280.800,293.741 280.800 C 293.637 280.800,293.689 281.025,293.856 281.300 M222.377 287.100 C 221.533 288.783,221.487 289.076,222.204 288.200 C 223.183 287.004,223.673 286.000,223.278 286.000 C 223.086 286.000,222.680 286.495,222.377 287.100 M298.438 288.800 C 300.032 291.391,300.378 291.391,298.923 288.800 C 298.305 287.701,297.667 286.801,297.504 286.800 C 297.341 286.800,297.761 287.700,298.438 288.800 M219.234 292.406 C 218.030 294.363,217.477 295.759,218.528 294.189 C 219.714 292.418,220.853 290.400,220.667 290.400 C 220.558 290.400,219.913 291.303,219.234 292.406 M300.349 291.800 C 300.565 292.240,301.034 292.960,301.393 293.400 L 302.044 294.200 301.651 293.400 C 301.435 292.960,300.966 292.240,300.607 291.800 L 299.956 291.000 300.349 291.800 M302.386 295.174 C 303.027 296.372,302.896 296.730,301.563 297.419 C 300.882 297.771,300.423 298.156,300.542 298.275 C 301.379 299.112,303.565 296.692,302.985 295.570 C 302.652 294.927,302.288 294.400,302.176 294.400 C 302.064 294.400,302.158 294.748,302.386 295.174 M217.200 296.103 C 217.200 296.960,220.592 299.541,221.079 299.054 C 221.180 298.953,220.424 298.379,219.400 297.779 C 218.005 296.961,217.585 296.500,217.731 295.943 C 217.838 295.535,217.762 295.200,217.563 295.200 C 217.363 295.200,217.200 295.606,217.200 296.103 M221.600 299.554 C 221.600 299.799,221.778 300.000,221.996 300.000 C 222.214 300.000,223.673 300.821,225.238 301.824 C 226.804 302.828,228.169 303.564,228.272 303.461 C 228.375 303.358,227.388 302.645,226.078 301.878 C 224.768 301.110,223.225 300.173,222.648 299.795 C 222.021 299.384,221.600 299.287,221.600 299.554 M295.870 300.853 C 294.369 301.744,293.221 302.555,293.320 302.654 C 293.501 302.835,298.800 299.645,298.800 299.355 C 298.800 299.116,298.772 299.130,295.870 300.853 M291.289 303.662 C 288.927 305.158,290.184 304.850,292.767 303.300 C 292.858 303.245,292.854 303.120,292.756 303.023 C 292.659 302.925,291.999 303.213,291.289 303.662 M231.600 305.564 C 232.150 306.014,232.780 306.383,233.000 306.385 C 233.428 306.388,232.705 305.834,231.400 305.160 C 230.869 304.885,230.936 305.021,231.600 305.564 M217.453 305.881 C 217.060 306.273,217.155 307.200,217.587 307.200 C 217.801 307.200,217.863 306.909,217.727 306.553 C 217.515 306.003,217.606 305.975,218.339 306.368 C 218.813 306.621,219.200 306.738,219.200 306.628 C 219.200 306.262,217.709 305.624,217.453 305.881 M286.133 306.750 C 283.694 308.286,283.479 308.699,285.800 307.387 C 288.172 306.047,288.180 306.042,287.967 305.850 C 287.875 305.767,287.050 306.172,286.133 306.750 M298.800 307.836 C 296.142 309.448,293.909 311.096,295.600 310.199 C 297.033 309.439,302.000 306.303,302.000 306.159 C 302.000 305.902,301.933 305.937,298.800 307.836 M233.600 306.722 C 233.600 306.914,234.095 307.320,234.700 307.623 C 236.383 308.467,236.676 308.513,235.800 307.796 C 234.604 306.817,233.600 306.327,233.600 306.722 M220.200 307.420 C 221.380 308.362,222.401 308.872,222.390 308.514 C 222.385 308.341,221.710 307.881,220.890 307.491 C 219.691 306.920,219.556 306.906,220.200 307.420 M301.502 308.292 C 300.944 309.121,299.563 311.105,298.433 312.700 C 297.303 314.295,296.519 315.595,296.690 315.588 C 297.072 315.574,302.896 307.163,302.676 306.942 C 302.588 306.855,302.060 307.462,301.502 308.292 M282.000 309.200 C 281.450 309.630,281.180 309.982,281.400 309.982 C 281.620 309.982,282.250 309.630,282.800 309.200 C 283.350 308.770,283.620 308.418,283.400 308.418 C 283.180 308.418,282.550 308.770,282.000 309.200 M219.464 310.000 C 219.854 310.660,220.326 311.200,220.513 311.200 C 220.701 311.200,220.470 310.660,220.000 310.000 C 219.530 309.340,219.058 308.800,218.950 308.800 C 218.843 308.800,219.074 309.340,219.464 310.000 M222.800 308.983 C 222.800 309.233,226.184 311.200,226.613 311.200 C 226.802 311.200,226.105 310.660,225.064 310.000 C 223.181 308.805,222.800 308.634,222.800 308.983 M238.000 309.358 C 238.000 309.596,241.941 312.003,242.306 311.987 C 242.468 311.980,242.240 311.696,241.800 311.356 C 240.825 310.602,238.000 309.116,238.000 309.358 M279.283 310.857 C 278.559 311.320,278.054 311.787,278.160 311.894 C 278.355 312.089,280.800 310.495,280.800 310.173 C 280.800 309.906,280.692 309.955,279.283 310.857 M293.300 311.246 C 291.937 312.119,291.495 312.706,292.700 312.043 C 293.618 311.539,295.056 310.427,294.800 310.419 C 294.690 310.416,294.015 310.788,293.300 311.246 M227.600 312.020 C 228.987 312.961,229.778 313.235,228.800 312.436 C 228.250 311.986,227.620 311.617,227.400 311.615 C 227.180 311.613,227.270 311.796,227.600 312.020 M242.800 312.354 C 242.800 312.599,242.977 312.800,243.192 312.800 C 243.408 312.800,244.593 313.445,245.825 314.234 C 247.058 315.022,248.151 315.583,248.254 315.479 C 248.357 315.376,247.667 314.857,246.721 314.325 C 245.774 313.794,244.505 313.033,243.900 312.634 C 243.258 312.210,242.800 312.094,242.800 312.354 M274.670 313.653 C 273.169 314.544,272.021 315.355,272.120 315.454 C 272.301 315.635,277.600 312.445,277.600 312.155 C 277.600 311.916,277.572 311.930,274.670 313.653 M289.502 313.511 C 288.458 314.110,287.603 314.733,287.602 314.896 C 287.601 315.059,288.500 314.639,289.600 313.962 C 290.700 313.285,291.600 312.657,291.600 312.566 C 291.600 312.315,291.543 312.341,289.502 313.511 M222.434 314.168 C 222.878 314.921,223.537 315.776,223.899 316.068 C 224.260 316.361,223.972 315.745,223.259 314.700 C 221.753 312.494,221.259 312.176,222.434 314.168 M230.600 313.807 C 231.040 314.166,231.760 314.635,232.200 314.851 L 233.000 315.244 232.200 314.593 C 231.760 314.234,231.040 313.765,230.600 313.549 L 229.800 313.156 230.600 313.807 M233.420 315.562 C 233.629 315.762,234.486 316.305,235.326 316.770 C 236.165 317.235,237.290 317.902,237.826 318.254 C 238.361 318.605,238.800 318.797,238.800 318.682 C 238.800 318.424,233.734 315.200,233.330 315.200 C 233.170 315.200,233.211 315.363,233.420 315.562 M249.400 316.207 C 249.840 316.566,250.560 317.035,251.000 317.251 L 251.800 317.644 251.000 316.993 C 250.560 316.634,249.840 316.165,249.400 315.949 L 248.600 315.556 249.400 316.207 M269.282 316.871 C 268.117 317.546,267.243 318.176,267.339 318.272 C 267.521 318.454,271.600 316.055,271.600 315.766 C 271.600 315.528,271.609 315.524,269.282 316.871 M284.100 316.846 C 282.737 317.719,282.295 318.306,283.500 317.643 C 284.418 317.139,285.856 316.027,285.600 316.019 C 285.490 316.016,284.815 316.388,284.100 316.846 M295.263 317.200 C 294.775 317.860,294.523 318.400,294.702 318.400 C 294.881 318.400,295.346 317.860,295.736 317.200 C 296.126 316.540,296.379 316.000,296.298 316.000 C 296.217 316.000,295.751 316.540,295.263 317.200 M225.200 318.000 C 226.298 319.542,226.558 319.543,225.681 318.003 C 225.307 317.344,224.853 316.804,224.673 316.803 C 224.493 316.801,224.730 317.340,225.200 318.000 M252.699 318.309 C 253.847 319.191,257.600 321.303,257.600 321.068 C 257.600 320.832,252.434 317.597,252.077 317.609 C 251.925 317.614,252.205 317.929,252.699 318.309 M263.407 320.425 C 260.318 322.263,260.175 322.305,259.007 321.738 L 257.800 321.152 258.800 321.967 C 260.100 323.027,259.878 323.075,263.222 321.013 C 264.816 320.031,266.318 319.155,266.560 319.068 C 266.802 318.981,266.910 318.823,266.800 318.718 C 266.690 318.612,265.163 319.380,263.407 320.425 M239.200 318.966 C 239.200 319.057,240.100 319.685,241.200 320.362 C 242.300 321.039,243.197 321.459,243.194 321.296 C 243.188 320.993,239.200 318.666,239.200 318.966 M279.501 319.537 C 278.311 320.254,277.948 321.077,279.100 320.443 C 280.254 319.809,281.428 318.824,281.000 318.849 C 280.780 318.862,280.105 319.172,279.501 319.537 M229.570 324.237 C 230.945 326.197,233.718 330.183,235.734 333.096 C 237.751 336.009,239.528 338.394,239.685 338.396 C 239.842 338.398,237.784 335.295,235.111 331.500 C 232.438 327.705,229.736 323.840,229.105 322.910 C 228.474 321.981,227.758 321.098,227.514 320.947 C 227.271 320.797,228.196 322.277,229.570 324.237 M276.400 321.600 C 275.850 322.030,275.580 322.382,275.800 322.382 C 276.020 322.382,276.650 322.030,277.200 321.600 C 277.750 321.170,278.020 320.818,277.800 320.818 C 277.580 320.818,276.950 321.170,276.400 321.600 M291.600 322.400 C 291.130 323.060,290.899 323.600,291.087 323.600 C 291.274 323.600,291.746 323.060,292.136 322.400 C 292.526 321.740,292.757 321.200,292.650 321.200 C 292.542 321.200,292.070 321.740,291.600 322.400 M244.369 322.321 C 245.815 323.334,249.200 325.242,249.200 325.044 C 249.200 324.792,244.075 321.596,243.710 321.621 C 243.539 321.633,243.836 321.948,244.369 322.321 M273.700 323.246 C 272.337 324.119,271.895 324.706,273.100 324.043 C 274.018 323.539,275.456 322.427,275.200 322.419 C 275.090 322.416,274.415 322.788,273.700 323.246 M250.200 325.821 C 251.415 326.790,252.400 327.267,252.400 326.888 C 252.400 326.701,251.725 326.241,250.900 325.866 C 249.625 325.285,249.520 325.279,250.200 325.821 M269.600 325.800 C 269.326 326.130,268.950 326.400,268.763 326.400 C 268.373 326.400,262.799 329.908,262.200 330.531 C 261.980 330.760,262.250 330.676,262.800 330.346 C 263.350 330.015,265.375 328.800,267.300 327.645 C 269.225 326.491,270.800 325.468,270.800 325.373 C 270.800 324.980,270.064 325.241,269.600 325.800 M288.800 326.400 C 288.330 327.060,288.099 327.600,288.287 327.600 C 288.474 327.600,288.946 327.060,289.336 326.400 C 289.726 325.740,289.957 325.200,289.850 325.200 C 289.742 325.200,289.270 325.740,288.800 326.400 M252.800 327.381 C 252.800 327.480,253.858 328.182,255.152 328.940 C 256.445 329.698,257.975 330.627,258.552 331.005 C 259.128 331.383,259.600 331.599,259.600 331.486 C 259.600 331.272,253.317 327.200,252.987 327.200 C 252.884 327.200,252.800 327.281,252.800 327.381 M286.356 329.900 C 286.043 330.285,285.416 331.140,284.961 331.800 C 282.195 335.818,269.697 353.620,268.884 354.700 C 268.345 355.415,268.061 355.992,268.253 355.981 C 268.444 355.971,269.804 354.216,271.275 352.081 C 273.776 348.451,284.740 332.739,286.473 330.300 C 287.337 329.084,287.252 328.796,286.356 329.900 M240.050 339.015 C 240.372 339.905,245.819 347.585,246.134 347.592 C 246.318 347.596,245.856 346.745,245.107 345.700 C 244.359 344.655,243.053 342.810,242.204 341.600 C 240.520 339.198,239.807 338.343,240.050 339.015 M246.893 348.900 C 247.215 349.395,247.729 350.205,248.035 350.700 C 248.342 351.195,248.740 351.600,248.921 351.600 C 249.102 351.600,248.668 350.790,247.957 349.800 C 246.630 347.952,245.846 347.289,246.893 348.900 M251.684 355.700 C 252.223 356.415,254.165 359.160,256.000 361.800 C 260.102 367.702,260.382 367.942,261.244 366.300 C 261.707 365.417,261.701 365.414,260.898 366.126 C 259.953 366.965,260.580 367.649,254.639 359.300 C 252.721 356.605,251.052 354.400,250.929 354.400 C 250.806 354.400,251.146 354.985,251.684 355.700 M267.014 357.435 C 266.641 358.004,266.405 358.538,266.489 358.622 C 266.573 358.707,266.958 358.241,267.344 357.588 C 268.206 356.128,267.948 356.009,267.014 357.435 M263.649 362.204 C 262.499 363.852,261.702 365.192,261.879 365.183 C 262.273 365.162,266.126 359.593,265.902 359.369 C 265.814 359.280,264.800 360.556,263.649 362.204 " stroke="none" fill="#5c5c7b" fill-rule="evenodd"></path><path id="path3" d="M274.400 15.807 C 270.953 16.746,270.028 17.279,267.444 19.811 C 264.994 22.212,264.484 22.975,263.638 25.499 C 261.961 30.501,262.199 33.541,264.657 38.522 C 268.795 46.908,258.382 52.621,253.118 44.853 C 244.805 32.587,226.230 36.877,224.587 51.442 C 223.699 59.312,228.285 65.865,236.428 68.362 C 242.106 70.103,250.840 66.305,253.373 60.994 C 255.794 55.918,262.919 55.965,265.550 61.074 C 266.375 62.675,266.071 65.039,264.700 67.688 C 258.984 78.734,268.634 91.983,280.993 90.059 C 299.592 87.163,297.819 59.224,279.035 59.202 C 269.281 59.191,269.709 47.099,279.494 46.247 C 289.126 45.409,295.974 35.915,293.381 26.994 C 291.014 18.852,282.227 13.673,274.400 15.807 M312.675 97.900 C 312.326 99.385,311.396 103.660,310.608 107.400 C 309.183 114.154,308.837 115.746,308.041 119.200 C 307.813 120.190,306.982 124.060,306.195 127.800 C 305.409 131.540,304.512 135.680,304.204 137.000 C 303.896 138.320,303.366 140.778,303.026 142.463 C 302.008 147.511,302.774 146.686,292.488 153.813 C 292.426 153.856,292.212 154.860,292.011 156.045 C 291.810 157.230,291.369 159.730,291.030 161.600 C 290.692 163.470,290.411 165.135,290.407 165.300 C 290.390 166.004,291.505 165.447,295.018 162.998 C 299.255 160.044,299.316 160.054,298.556 163.600 C 298.249 165.030,297.551 168.360,297.005 171.000 C 296.459 173.640,295.739 177.060,295.406 178.600 C 295.073 180.140,294.800 181.625,294.800 181.900 C 294.800 182.296,301.383 182.400,326.409 182.400 L 358.017 182.400 358.382 181.500 C 359.025 179.918,361.269 168.035,361.006 167.610 C 360.838 167.338,353.148 167.200,338.176 167.200 C 319.567 167.200,315.600 167.106,315.600 166.664 C 315.600 166.202,316.329 162.626,317.651 156.600 C 317.844 155.720,318.180 154.100,318.396 153.000 C 319.409 147.864,319.969 145.848,320.464 145.556 C 320.759 145.382,323.556 143.476,326.680 141.320 C 329.804 139.164,334.619 135.870,337.380 134.000 C 343.009 130.188,342.500 130.989,343.997 123.600 C 344.465 121.290,344.939 119.085,345.051 118.700 C 345.412 117.453,344.554 117.923,337.321 122.925 C 325.609 131.025,322.800 132.845,322.800 132.336 C 322.800 132.069,323.061 130.760,323.379 129.426 C 323.698 128.092,324.603 123.940,325.389 120.200 C 326.176 116.460,326.991 112.680,327.200 111.800 C 327.409 110.920,327.965 108.400,328.437 106.200 C 328.908 104.000,329.470 101.390,329.686 100.400 C 330.547 96.451,330.680 95.613,330.478 95.411 C 330.362 95.295,326.451 95.200,321.787 95.200 L 313.308 95.200 312.675 97.900 M259.171 228.700 C 258.861 229.305,257.210 232.009,255.503 234.709 C 253.797 237.409,252.400 239.700,252.400 239.800 C 252.400 239.900,250.960 242.240,249.200 245.000 C 247.440 247.760,246.000 250.100,246.000 250.200 C 246.000 250.300,244.560 252.640,242.800 255.400 C 241.040 258.160,239.600 260.495,239.600 260.589 C 239.600 260.683,238.270 262.884,236.645 265.480 C 233.661 270.247,228.075 279.292,226.600 281.744 C 226.160 282.476,224.900 284.546,223.800 286.345 C 222.700 288.144,221.620 289.928,221.400 290.309 C 221.180 290.691,220.325 292.106,219.500 293.454 C 218.675 294.802,218.000 296.062,218.000 296.255 C 218.000 296.642,221.405 298.800,222.016 298.800 C 222.227 298.800,222.400 298.980,222.400 299.200 C 222.400 299.420,222.578 299.600,222.796 299.600 C 223.014 299.600,224.455 300.410,226.000 301.400 C 227.545 302.390,228.889 303.200,228.987 303.200 C 229.086 303.200,231.162 304.460,233.600 306.000 C 236.038 307.540,238.113 308.800,238.209 308.800 C 238.306 308.800,239.369 309.430,240.573 310.200 C 241.777 310.970,242.950 311.600,243.181 311.600 C 243.411 311.600,243.600 311.780,243.600 312.000 C 243.600 312.220,243.793 312.400,244.030 312.400 C 244.266 312.400,245.712 313.210,247.242 314.200 C 248.773 315.190,250.093 316.000,250.177 316.000 C 250.261 316.000,252.418 317.260,254.972 318.800 C 260.610 322.200,259.788 322.204,265.493 318.748 C 268.082 317.180,271.010 315.444,272.000 314.891 C 272.990 314.338,274.278 313.551,274.862 313.143 C 275.446 312.734,276.106 312.400,276.328 312.400 C 276.551 312.400,276.793 312.265,276.867 312.100 C 276.990 311.822,281.962 308.726,285.200 306.910 C 285.970 306.478,287.907 305.287,289.504 304.262 C 291.101 303.238,292.495 302.400,292.600 302.400 C 292.705 302.400,294.009 301.632,295.496 300.693 C 296.983 299.754,298.841 298.651,299.625 298.242 C 302.486 296.750,302.677 296.508,301.969 295.284 C 301.624 294.688,301.085 293.750,300.771 293.200 C 300.457 292.650,300.097 292.110,299.971 292.000 C 299.845 291.890,299.621 291.530,299.474 291.200 C 299.327 290.870,298.120 288.890,296.791 286.800 C 295.461 284.710,294.253 282.730,294.106 282.400 C 293.959 282.070,292.254 279.313,290.319 276.273 C 288.384 273.233,286.800 270.676,286.800 270.590 C 286.800 270.504,285.540 268.438,284.000 266.000 C 282.460 263.562,281.200 261.394,281.200 261.183 C 281.200 260.972,281.020 260.800,280.800 260.800 C 280.580 260.800,280.400 260.614,280.400 260.386 C 280.400 260.158,279.320 258.274,278.000 256.200 C 276.680 254.126,275.600 252.242,275.600 252.014 C 275.600 251.786,275.420 251.600,275.200 251.600 C 274.980 251.600,274.800 251.428,274.800 251.217 C 274.800 251.006,273.540 248.838,272.000 246.400 C 270.460 243.962,269.200 241.899,269.200 241.816 C 269.200 241.733,267.760 239.397,266.000 236.625 C 264.240 233.852,262.800 231.407,262.800 231.192 C 262.800 230.976,262.620 230.800,262.400 230.800 C 262.180 230.800,262.000 230.603,262.000 230.362 C 262.000 229.798,260.441 227.600,260.040 227.600 C 259.873 227.600,259.481 228.095,259.171 228.700 M221.310 311.244 C 222.899 313.468,224.809 316.213,225.554 317.344 C 226.299 318.475,227.029 319.490,227.175 319.600 C 227.322 319.710,227.830 320.438,228.303 321.218 C 228.776 321.998,229.528 323.055,229.973 323.568 C 230.417 324.081,231.365 325.423,232.078 326.550 C 232.790 327.678,233.485 328.690,233.620 328.800 C 233.756 328.910,238.267 335.300,243.645 343.000 C 255.467 359.925,255.344 359.751,255.626 360.000 C 255.751 360.110,256.514 361.190,257.323 362.400 C 258.132 363.610,259.120 365.018,259.520 365.529 L 260.247 366.458 270.390 351.929 C 275.969 343.938,280.683 337.340,280.867 337.267 C 281.050 337.193,281.200 336.951,281.200 336.729 C 281.200 336.507,282.004 335.267,282.987 333.975 C 283.970 332.683,285.257 330.854,285.847 329.913 C 286.437 328.971,287.038 328.110,287.183 328.000 C 287.440 327.804,300.763 308.719,301.377 307.667 C 301.783 306.971,300.081 307.846,296.413 310.219 C 294.899 311.199,293.481 312.000,293.263 312.000 C 293.045 312.000,292.807 312.141,292.733 312.312 C 292.623 312.572,286.225 316.584,283.400 318.166 C 282.960 318.412,282.150 318.899,281.600 319.248 C 281.050 319.597,278.710 321.049,276.400 322.474 C 274.090 323.900,270.233 326.288,267.830 327.781 C 265.426 329.273,262.702 330.917,261.775 331.435 L 260.091 332.375 256.745 330.331 C 254.905 329.206,251.870 327.351,250.000 326.208 C 248.130 325.065,244.530 322.869,242.000 321.328 C 239.470 319.787,236.093 317.688,234.496 316.663 C 232.899 315.638,231.511 314.800,231.413 314.800 C 231.314 314.800,229.201 313.514,226.717 311.942 C 222.038 308.981,219.002 307.200,218.633 307.200 C 218.515 307.200,219.720 309.020,221.310 311.244 " stroke="none" fill="#dbebfb" fill-rule="evenodd"></path><path id="path4" d="M123.445 21.128 C 123.333 21.308,123.773 21.377,124.421 21.282 C 125.070 21.187,125.600 21.040,125.600 20.955 C 125.600 20.650,123.643 20.807,123.445 21.128 M154.505 21.087 C 155.114 21.179,156.014 21.177,156.505 21.082 C 156.997 20.987,156.500 20.911,155.400 20.914 C 154.300 20.917,153.897 20.995,154.505 21.087 M250.200 185.855 C 244.661 186.272,234.781 188.144,232.504 189.208 C 231.572 189.643,230.541 190.000,230.213 190.000 C 229.627 190.000,224.170 191.704,222.600 192.376 C 222.160 192.565,221.170 192.944,220.400 193.220 C 218.693 193.830,217.223 194.431,214.600 195.592 C 210.588 197.368,209.747 197.791,206.867 199.480 C 205.254 200.426,203.854 201.200,203.755 201.200 C 203.389 201.200,195.701 206.338,193.039 208.362 C 187.621 212.480,180.183 219.452,176.400 223.960 C 175.410 225.139,174.420 226.306,174.200 226.552 C 173.980 226.799,173.270 227.720,172.621 228.600 C 171.973 229.480,171.335 230.290,171.204 230.400 C 170.085 231.338,163.833 241.304,161.795 245.400 C 161.138 246.720,160.465 247.860,160.300 247.933 C 160.135 248.007,160.000 248.259,160.000 248.495 C 160.000 248.997,158.452 252.455,156.797 255.647 C 155.810 257.553,154.881 260.208,152.404 268.200 C 150.902 273.047,149.279 284.097,148.763 293.000 C 148.546 296.740,148.271 301.105,148.152 302.700 C 148.008 304.641,148.079 305.600,148.368 305.600 C 148.645 305.600,148.800 306.891,148.800 309.200 C 148.800 311.333,148.963 312.800,149.200 312.800 C 149.420 312.800,149.600 313.790,149.600 315.000 C 149.600 316.210,149.780 317.200,150.000 317.200 C 150.220 317.200,150.400 318.010,150.400 319.000 C 150.400 319.990,150.557 320.800,150.748 320.800 C 150.940 320.800,151.221 322.060,151.373 323.600 C 151.524 325.140,151.818 326.400,152.024 326.400 C 152.231 326.400,152.400 327.030,152.400 327.800 C 152.400 328.570,152.580 329.200,152.800 329.200 C 153.020 329.200,153.200 329.650,153.200 330.200 C 153.200 330.750,153.357 331.200,153.548 331.200 C 153.740 331.200,154.015 332.093,154.160 333.184 C 154.305 334.275,154.598 335.275,154.812 335.407 C 155.025 335.539,155.200 336.087,155.200 336.624 C 155.200 337.161,155.380 337.600,155.600 337.600 C 155.820 337.600,156.000 337.960,156.000 338.400 C 156.000 338.840,156.180 339.200,156.400 339.200 C 156.620 339.200,156.800 339.650,156.800 340.200 C 156.800 340.750,156.960 341.200,157.155 341.200 C 157.351 341.200,157.629 341.830,157.774 342.600 C 157.918 343.370,158.208 344.000,158.418 344.000 C 158.628 344.000,158.800 344.360,158.800 344.800 C 158.800 345.240,158.980 345.600,159.200 345.600 C 159.420 345.600,159.600 345.870,159.600 346.200 C 159.600 346.530,159.780 346.800,160.000 346.800 C 160.220 346.800,160.400 347.069,160.400 347.397 C 160.400 348.231,161.723 351.200,162.094 351.200 C 162.262 351.200,162.400 351.560,162.400 352.000 C 162.400 352.440,162.580 352.800,162.800 352.800 C 163.020 352.800,163.200 353.070,163.200 353.400 C 163.200 353.730,163.368 354.000,163.573 354.000 C 163.778 354.000,164.074 354.405,164.230 354.900 C 164.387 355.395,164.849 356.091,165.257 356.447 C 165.666 356.803,166.000 357.388,166.000 357.747 C 166.000 358.106,166.168 358.400,166.373 358.400 C 166.578 358.400,166.874 358.805,167.030 359.300 C 167.187 359.795,167.649 360.491,168.057 360.847 C 168.466 361.203,168.800 361.658,168.800 361.859 C 168.800 362.059,169.160 362.483,169.600 362.800 C 170.040 363.117,170.400 363.674,170.400 364.037 C 170.400 364.401,171.030 365.236,171.800 365.894 C 172.570 366.552,173.200 367.305,173.200 367.567 C 173.200 367.830,174.100 368.959,175.200 370.077 C 176.300 371.194,177.200 372.250,177.200 372.422 C 177.200 372.860,184.014 379.600,184.457 379.600 C 184.655 379.600,185.792 380.590,186.983 381.800 C 188.174 383.010,189.257 384.000,189.391 384.000 C 189.660 384.000,190.354 384.547,191.801 385.900 C 192.330 386.395,192.952 386.800,193.182 386.800 C 193.412 386.800,193.600 386.968,193.600 387.173 C 193.600 387.378,194.005 387.674,194.500 387.830 C 194.995 387.987,195.691 388.449,196.047 388.857 C 196.403 389.266,196.988 389.600,197.347 389.600 C 197.706 389.600,198.000 389.768,198.000 389.973 C 198.000 390.178,198.405 390.474,198.900 390.630 C 199.395 390.787,200.073 391.204,200.406 391.557 C 201.124 392.319,202.096 392.954,204.000 393.902 C 204.770 394.286,205.460 394.735,205.533 394.900 C 205.607 395.065,206.012 395.200,206.433 395.200 C 206.855 395.200,207.200 395.338,207.200 395.506 C 207.200 395.877,210.169 397.200,211.003 397.200 C 211.331 397.200,211.600 397.380,211.600 397.600 C 211.600 397.820,211.870 398.000,212.200 398.000 C 212.530 398.000,212.800 398.180,212.800 398.400 C 212.800 398.620,213.160 398.800,213.600 398.800 C 214.040 398.800,214.400 398.961,214.400 399.157 C 214.400 399.353,215.480 399.837,216.800 400.232 C 218.120 400.628,219.200 401.097,219.200 401.276 C 219.200 401.454,219.639 401.600,220.176 401.600 C 220.713 401.600,221.264 401.780,221.400 402.000 C 221.536 402.220,222.087 402.400,222.624 402.400 C 223.161 402.400,223.600 402.563,223.600 402.762 C 223.600 402.962,224.500 403.249,225.600 403.400 C 226.700 403.551,227.600 403.838,227.600 404.038 C 227.600 404.237,228.140 404.400,228.800 404.400 C 229.460 404.400,230.000 404.580,230.000 404.800 C 230.000 405.020,230.630 405.200,231.400 405.200 C 232.170 405.200,232.800 405.380,232.800 405.600 C 232.800 405.820,233.610 406.000,234.600 406.000 C 235.590 406.000,236.400 406.161,236.400 406.358 C 236.400 406.554,238.065 406.846,240.100 407.005 C 242.135 407.165,243.928 407.499,244.085 407.748 C 244.489 408.387,275.508 408.390,275.915 407.751 C 276.072 407.505,277.955 407.173,280.099 407.014 C 282.244 406.855,284.100 406.562,284.223 406.363 C 284.346 406.163,285.067 406.000,285.824 406.000 C 286.581 406.000,287.200 405.820,287.200 405.600 C 287.200 405.380,287.819 405.200,288.576 405.200 C 289.333 405.200,290.064 405.020,290.200 404.800 C 290.336 404.580,290.887 404.400,291.424 404.400 C 291.961 404.400,292.400 404.243,292.400 404.052 C 292.400 403.860,293.480 403.581,294.800 403.432 C 296.120 403.282,297.200 402.989,297.200 402.780 C 297.200 402.571,297.560 402.400,298.000 402.400 C 298.440 402.400,298.800 402.220,298.800 402.000 C 298.800 401.780,299.250 401.600,299.800 401.600 C 300.350 401.600,300.800 401.420,300.800 401.200 C 300.800 400.980,301.205 400.799,301.700 400.798 C 302.195 400.796,303.116 400.526,303.746 400.198 C 304.376 399.869,305.141 399.600,305.446 399.600 C 305.751 399.600,306.000 399.420,306.000 399.200 C 306.000 398.980,306.270 398.800,306.600 398.800 C 306.930 398.800,307.200 398.620,307.200 398.400 C 307.200 398.180,307.639 398.000,308.176 398.000 C 308.713 398.000,309.255 397.834,309.381 397.631 C 309.506 397.428,310.156 397.142,310.824 396.995 C 311.492 396.848,312.253 396.384,312.515 395.964 C 312.778 395.544,313.309 395.200,313.696 395.200 C 314.083 395.200,314.400 395.020,314.400 394.800 C 314.400 394.580,314.664 394.400,314.988 394.400 C 315.871 394.400,318.840 392.760,319.078 392.141 C 319.192 391.844,319.626 391.600,320.043 391.600 C 320.459 391.600,320.800 391.432,320.800 391.227 C 320.800 391.022,321.205 390.726,321.700 390.570 C 322.195 390.413,322.891 389.951,323.247 389.543 C 323.603 389.134,324.055 388.800,324.251 388.800 C 324.447 388.800,325.093 388.350,325.687 387.800 C 326.280 387.250,327.031 386.800,327.356 386.800 C 327.680 386.800,328.057 386.449,328.194 386.020 C 328.330 385.592,328.830 385.117,329.306 384.966 C 329.782 384.815,330.957 383.906,331.917 382.946 C 332.878 381.986,333.841 381.200,334.059 381.200 C 334.590 381.200,343.291 372.452,344.234 370.970 C 344.644 370.327,345.569 369.282,346.289 368.649 C 347.010 368.016,347.600 367.161,347.600 366.749 C 347.600 366.337,347.752 366.000,347.939 366.000 C 348.542 366.000,349.865 364.633,350.551 363.300 C 350.919 362.585,351.396 362.000,351.610 362.000 C 351.825 362.000,352.000 361.706,352.000 361.347 C 352.000 360.988,352.334 360.403,352.743 360.047 C 353.151 359.691,353.613 358.995,353.770 358.500 C 353.926 358.005,354.222 357.600,354.427 357.600 C 354.632 357.600,354.800 357.283,354.800 356.896 C 354.800 356.509,355.160 355.968,355.600 355.693 C 356.040 355.418,356.400 354.925,356.400 354.597 C 356.400 354.268,356.560 354.000,356.757 354.000 C 356.953 354.000,357.226 353.550,357.364 353.000 C 357.502 352.450,357.792 352.000,358.008 352.000 C 358.223 352.000,358.400 351.640,358.400 351.200 C 358.400 350.760,358.538 350.400,358.706 350.400 C 359.027 350.400,360.400 347.480,360.400 346.797 C 360.400 346.579,360.580 346.400,360.800 346.400 C 361.020 346.400,361.200 346.040,361.200 345.600 C 361.200 345.160,361.380 344.800,361.600 344.800 C 361.820 344.800,362.000 344.440,362.000 344.000 C 362.000 343.560,362.180 343.200,362.400 343.200 C 362.620 343.200,362.800 342.750,362.800 342.200 C 362.800 341.650,362.972 341.200,363.182 341.200 C 363.392 341.200,363.682 340.570,363.826 339.800 C 363.971 339.030,364.249 338.400,364.445 338.400 C 364.640 338.400,364.800 337.950,364.800 337.400 C 364.800 336.850,364.980 336.400,365.200 336.400 C 365.420 336.400,365.600 335.860,365.600 335.200 C 365.600 334.540,365.763 334.000,365.962 334.000 C 366.162 334.000,366.449 333.100,366.600 332.000 C 366.751 330.900,367.038 330.000,367.238 330.000 C 367.437 330.000,367.600 329.460,367.600 328.800 C 367.600 328.140,367.780 327.600,368.000 327.600 C 368.220 327.600,368.400 326.970,368.400 326.200 C 368.400 325.430,368.580 324.800,368.800 324.800 C 369.020 324.800,369.200 324.181,369.200 323.424 C 369.200 322.667,369.367 321.944,369.570 321.818 C 369.774 321.692,370.067 319.972,370.222 317.995 C 370.377 316.018,370.660 314.400,370.852 314.400 C 371.043 314.400,371.200 313.151,371.200 311.624 C 371.200 310.097,371.380 308.736,371.600 308.600 C 371.852 308.444,372.000 304.063,372.000 296.776 C 372.000 289.325,371.857 285.200,371.600 285.200 C 371.371 285.200,371.200 284.000,371.200 282.400 C 371.200 280.860,371.046 279.600,370.857 279.600 C 370.669 279.600,370.389 277.935,370.236 275.900 C 370.083 273.865,369.787 272.029,369.579 271.820 C 369.370 271.611,369.200 270.846,369.200 270.120 C 369.200 269.394,369.020 268.800,368.800 268.800 C 368.580 268.800,368.400 268.170,368.400 267.400 C 368.400 266.630,368.220 266.000,368.000 266.000 C 367.780 266.000,367.600 265.550,367.600 265.000 C 367.600 264.450,367.441 264.000,367.246 264.000 C 367.051 264.000,366.768 263.010,366.617 261.800 C 366.466 260.590,366.175 259.600,365.971 259.600 C 365.767 259.600,365.600 259.150,365.600 258.600 C 365.600 258.050,365.420 257.600,365.200 257.600 C 364.980 257.600,364.800 257.261,364.800 256.846 C 364.800 256.431,364.531 255.576,364.202 254.946 C 363.874 254.316,363.604 253.496,363.602 253.124 C 363.601 252.752,363.420 252.336,363.200 252.200 C 362.980 252.064,362.800 251.603,362.800 251.176 C 362.800 250.749,362.620 250.400,362.400 250.400 C 362.180 250.400,362.000 250.040,362.000 249.600 C 362.000 249.160,361.820 248.800,361.600 248.800 C 361.380 248.800,361.200 248.530,361.200 248.200 C 361.200 247.870,361.040 247.600,360.845 247.600 C 360.649 247.600,360.371 246.970,360.226 246.200 C 360.082 245.430,359.792 244.800,359.582 244.800 C 359.372 244.800,359.200 244.440,359.200 244.000 C 359.200 243.560,359.020 243.200,358.800 243.200 C 358.580 243.200,358.400 242.930,358.400 242.600 C 358.400 242.270,358.220 242.000,358.000 242.000 C 357.780 242.000,357.600 241.662,357.600 241.249 C 357.600 240.836,357.330 240.274,357.000 240.000 C 356.670 239.726,356.400 239.254,356.400 238.951 C 356.400 238.648,356.220 238.400,356.000 238.400 C 355.780 238.400,355.600 238.140,355.600 237.823 C 355.600 237.505,355.269 237.010,354.865 236.723 C 354.460 236.435,354.007 235.705,353.857 235.100 C 353.707 234.495,353.408 234.000,353.192 234.000 C 352.977 234.000,352.800 233.770,352.800 233.488 C 352.800 233.207,352.440 232.717,352.000 232.400 C 351.560 232.083,351.200 231.528,351.200 231.168 C 351.200 230.807,350.750 230.174,350.200 229.761 C 349.650 229.348,349.199 228.828,349.198 228.605 C 349.197 228.382,348.387 227.346,347.398 226.301 C 346.409 225.257,345.600 224.314,345.600 224.205 C 345.600 223.792,343.067 221.050,341.460 219.722 C 341.142 219.460,340.809 219.026,340.720 218.759 C 340.595 218.385,339.501 218.425,335.946 218.937 C 326.832 220.247,314.288 219.495,306.600 217.177 C 303.677 216.295,298.931 214.734,298.200 214.413 C 283.881 208.128,273.023 199.524,265.261 188.313 L 263.400 185.625 257.600 185.680 C 254.410 185.710,251.080 185.789,250.200 185.855 M261.500 227.799 C 261.995 228.564,262.400 229.371,262.400 229.594 C 262.400 229.817,262.580 230.000,262.800 230.000 C 263.020 230.000,263.200 230.186,263.200 230.414 C 263.200 230.642,264.280 232.526,265.600 234.600 C 266.920 236.674,268.000 238.558,268.000 238.786 C 268.000 239.014,268.159 239.200,268.353 239.200 C 268.548 239.200,268.812 239.515,268.940 239.900 C 269.069 240.285,270.530 242.732,272.187 245.338 C 273.844 247.943,275.200 250.145,275.200 250.230 C 275.200 250.315,275.830 251.369,276.600 252.573 C 277.370 253.777,278.000 254.935,278.000 255.147 C 278.000 255.360,278.135 255.593,278.300 255.667 C 278.620 255.809,280.800 259.048,280.800 259.382 C 280.800 259.491,281.936 261.340,283.323 263.490 C 284.711 265.641,285.970 267.670,286.121 268.000 C 286.272 268.330,286.621 268.948,286.897 269.373 C 287.174 269.799,288.300 271.607,289.400 273.391 C 290.500 275.176,291.630 276.988,291.912 277.418 C 292.193 277.848,292.529 278.515,292.658 278.900 C 292.788 279.285,293.052 279.600,293.247 279.600 C 293.441 279.600,293.600 279.774,293.600 279.988 C 293.600 280.201,294.410 281.627,295.400 283.158 C 296.390 284.688,297.200 286.119,297.200 286.337 C 297.200 286.555,297.343 286.793,297.517 286.867 C 297.691 286.940,299.129 289.160,300.712 291.800 L 303.590 296.600 302.695 297.301 C 302.203 297.687,301.395 298.111,300.900 298.245 C 300.405 298.378,300.000 298.647,300.000 298.843 C 300.000 299.040,299.822 299.200,299.604 299.200 C 299.386 299.200,297.945 300.010,296.400 301.000 C 294.855 301.990,293.414 302.800,293.196 302.800 C 292.978 302.800,292.800 302.959,292.800 303.153 C 292.800 303.348,292.485 303.606,292.100 303.728 C 291.370 303.958,288.347 305.643,288.000 306.013 C 287.762 306.267,281.977 309.728,281.400 309.962 C 281.180 310.051,280.443 310.546,279.762 311.062 C 279.081 311.578,278.408 312.000,278.266 312.000 C 278.124 312.000,276.745 312.810,275.200 313.800 C 273.655 314.790,272.307 315.600,272.204 315.600 C 272.100 315.600,271.031 316.230,269.827 317.000 C 268.623 317.770,267.465 318.400,267.253 318.400 C 267.040 318.400,266.807 318.538,266.733 318.708 C 266.629 318.949,261.461 322.196,260.355 322.715 C 260.221 322.778,257.701 321.359,254.755 319.562 C 251.810 317.764,248.590 315.842,247.600 315.290 C 246.610 314.737,245.322 313.951,244.738 313.543 C 244.154 313.134,243.479 312.800,243.238 312.800 C 242.997 312.800,242.800 312.620,242.800 312.400 C 242.800 312.180,242.607 312.000,242.370 312.000 C 242.134 312.000,240.739 311.233,239.270 310.296 C 237.802 309.359,235.925 308.238,235.100 307.805 C 234.275 307.372,233.600 306.879,233.600 306.709 C 233.600 306.539,233.423 306.400,233.208 306.400 C 232.992 306.400,231.831 305.770,230.627 305.000 C 229.423 304.230,228.342 303.600,228.223 303.600 C 228.105 303.600,226.745 302.790,225.200 301.800 C 223.655 300.810,222.214 300.000,221.996 300.000 C 221.778 300.000,221.600 299.820,221.600 299.600 C 221.600 299.380,221.427 299.200,221.216 299.200 C 220.119 299.200,217.200 296.949,217.200 296.103 C 217.200 295.606,217.380 295.200,217.600 295.200 C 217.820 295.200,218.000 295.007,218.000 294.770 C 218.000 294.534,218.767 293.139,219.704 291.670 C 220.641 290.202,221.762 288.325,222.195 287.500 C 222.628 286.675,223.121 286.000,223.291 286.000 C 223.461 286.000,223.600 285.730,223.600 285.400 C 223.600 285.070,223.780 284.800,224.000 284.800 C 224.220 284.800,224.400 284.611,224.400 284.381 C 224.400 284.150,225.030 282.977,225.800 281.773 C 226.570 280.569,227.200 279.470,227.200 279.330 C 227.200 279.190,227.650 278.486,228.200 277.764 C 228.750 277.043,229.200 276.350,229.200 276.223 C 229.200 276.096,230.190 274.458,231.400 272.582 C 232.610 270.707,233.600 269.096,233.600 269.003 C 233.600 268.910,234.860 266.838,236.400 264.400 C 237.940 261.962,239.200 259.794,239.200 259.583 C 239.200 259.372,239.335 259.200,239.500 259.199 C 239.665 259.199,240.317 258.209,240.949 256.999 C 241.581 255.790,242.256 254.800,242.449 254.800 C 242.642 254.800,242.800 254.611,242.800 254.381 C 242.800 254.150,243.430 252.977,244.200 251.773 C 244.970 250.569,245.600 249.494,245.600 249.384 C 245.600 249.049,247.779 245.810,248.100 245.667 C 248.265 245.593,248.400 245.370,248.400 245.171 C 248.400 244.971,249.210 243.545,250.200 242.000 C 251.190 240.455,252.000 239.014,252.000 238.796 C 252.000 238.578,252.180 238.400,252.400 238.400 C 252.620 238.400,252.800 238.228,252.800 238.017 C 252.800 237.806,254.060 235.638,255.600 233.200 C 257.140 230.762,258.400 228.594,258.400 228.383 C 258.400 228.172,258.580 228.000,258.800 228.000 C 259.020 228.000,259.200 227.745,259.200 227.433 C 259.200 226.945,259.700 226.530,260.400 226.437 C 260.510 226.422,261.005 227.035,261.500 227.799 M48.800 266.285 C 48.800 266.634,50.399 267.738,50.600 267.528 C 50.667 267.457,50.289 267.077,49.761 266.681 C 49.232 266.286,48.800 266.108,48.800 266.285 M221.700 307.878 C 222.085 307.997,222.400 308.252,222.400 308.447 C 222.400 308.641,222.584 308.800,222.809 308.800 C 223.294 308.800,226.542 310.869,226.733 311.300 C 226.807 311.465,227.030 311.600,227.229 311.600 C 227.429 311.600,228.855 312.410,230.400 313.400 C 231.945 314.390,233.293 315.200,233.397 315.200 C 233.636 315.200,242.432 320.641,243.083 321.191 C 243.349 321.416,243.674 321.600,243.805 321.600 C 243.937 321.600,245.429 322.486,247.122 323.568 C 248.815 324.651,250.695 325.760,251.300 326.032 C 251.905 326.305,252.400 326.680,252.400 326.864 C 252.400 327.049,252.582 327.200,252.804 327.200 C 253.026 327.200,254.742 328.190,256.618 329.400 C 260.712 332.041,259.626 332.087,264.290 329.077 C 266.441 327.689,268.470 326.430,268.800 326.279 C 269.130 326.128,269.748 325.779,270.173 325.503 C 274.254 322.851,277.665 320.800,277.996 320.800 C 278.218 320.800,278.400 320.661,278.400 320.491 C 278.400 320.321,279.075 319.828,279.900 319.395 C 280.725 318.962,282.602 317.841,284.070 316.904 C 285.539 315.967,286.919 315.200,287.137 315.200 C 287.355 315.200,287.593 315.059,287.667 314.888 C 287.740 314.716,289.600 313.482,291.800 312.145 C 294.000 310.809,297.026 308.961,298.524 308.039 C 302.318 305.703,303.337 305.339,302.986 306.445 C 302.736 307.232,297.383 315.157,296.802 315.600 C 296.658 315.710,296.199 316.385,295.784 317.100 C 295.368 317.815,294.886 318.400,294.714 318.400 C 294.541 318.400,294.400 318.670,294.400 319.000 C 294.400 319.330,294.253 319.600,294.074 319.600 C 293.894 319.600,293.344 320.317,292.852 321.193 C 292.359 322.069,291.724 323.018,291.441 323.302 C 291.157 323.586,290.420 324.624,289.803 325.609 C 289.185 326.594,288.568 327.490,288.430 327.600 C 288.293 327.710,285.921 331.040,283.158 335.000 C 280.396 338.960,276.001 345.260,273.392 349.000 C 270.783 352.740,268.534 355.890,268.394 356.000 C 268.254 356.110,267.799 356.785,267.384 357.500 C 266.968 358.215,266.486 358.800,266.314 358.800 C 266.141 358.800,266.000 358.993,266.000 359.228 C 266.000 359.574,263.261 363.689,261.893 365.400 C 261.717 365.620,261.349 366.125,261.076 366.522 C 260.246 367.727,259.597 367.049,254.400 359.540 C 251.650 355.568,249.077 351.939,248.682 351.476 C 248.287 351.014,247.576 349.998,247.103 349.218 C 246.630 348.438,246.128 347.710,245.989 347.600 C 245.609 347.300,240.000 339.206,240.000 338.958 C 240.000 338.839,239.756 338.499,239.458 338.201 C 238.977 337.720,225.834 319.061,222.500 314.125 C 221.785 313.066,220.933 311.887,220.608 311.505 C 220.283 311.123,219.536 310.043,218.948 309.105 C 218.361 308.167,217.701 307.283,217.482 307.140 C 215.964 306.151,217.726 305.633,219.297 306.607 C 220.234 307.188,221.315 307.760,221.700 307.878 " stroke="none" fill="#44444c" fill-rule="evenodd"></path></g></svg>